Dactyl Sans Extra Light.sfdir
StartChar: !
Encoding: 33 33 0
Width: 49
InSpiro: 1
        Flags: H
        LayerCount: 2
        Back
        SplineSet
3 607 m 0
7 607 l 0
7 203 l 0
3 203 l 0
3 607 l 0
Z
5 -2 m 0
6 -1 8 -1 9 0 c 0
11 1 11 3 12 5 c 0
12 6 11 8 9 9 c 0
8 11 6 12 5 12 c 0
3 11 1 11 0 9 c 0
-1 8 -1 6 -2 5 c 0
-2 3 -1 1 0 0 c 0
1 -1 3 -2 5 -2 c 0
Z
Spiro
3 607 v
7 607 v
7 203 v
3 203 v
5 -2 c
12 5 c
5 12 c
-2 5 c
0 0 z
EndSpiro
EndSplineSet
        Fore
        SplineSet
0 606 m 0
6 606 l 0
6 200 l 0
0 200 l 0
0 606 l 0
Z
3 -5 m 0
5 -4 7 -4 8 -2 c 0
10 -1 10 0 11 3 c 0
11 5 10 7 8 8 c 0
7 10 5 11 3 11 c 0
0 10 -1 10 -2 8 c 0
-4 7 -4 5 -5 3 c 0
-5 0 -4 -1 -2 -2 c 0
-1 -4 0 -5 3 -5 c 0
Z
Spiro
0 606 v
6 606 v
6 200 v
0 200 v
3 -5 c
11 3 c
3 11 c
-5 3 c
0 0 z
EndSpiro
EndSplineSet
        EndChar
StartChar: "
Encoding: 34 34 0
Width: 199
InSpiro: 1
        Flags: H
        LayerCount: 2
        Back
        SplineSet
3 607 m 0
7 607 l 0
7 453 l 0
3 453 l 0
3 607 l 0
Z
152 607 m 0
157 607 l 0
157 453 l 0
152 453 l 0
152 607 l 0
Z
Spiro
3 607 v
7 607 v
7 453 v
3 453 v
152 607 v
157 607 v
157 453 v
152 453 v
0 0 z
EndSpiro
EndSplineSet
        Fore
        SplineSet
0 606 m 0
6 606 l 0
6 450 l 0
0 450 l 0
0 606 l 0
Z
149 606 m 0
156 606 l 0
156 450 l 0
149 450 l 0
149 606 l 0
Z
Spiro
0 606 v
6 606 v
6 450 v
0 450 v
149 606 v
156 606 v
156 450 v
149 450 v
0 0 z
EndSpiro
EndSplineSet
        EndChar
StartChar: #
Encoding: 35 35 0
Width: 349
InSpiro: 1
        Flags: H
        LayerCount: 2
        Back
        SplineSet
3 403 m 0
3 407 l 0
307 407 l 0
307 403 l 0
3 403 l 0
Z
3 203 m 0
3 207 l 0
307 207 l 0
307 203 l 0
3 203 l 0
Z
227 607 m 0
232 607 l 0
232 3 l 0
227 3 l 0
227 607 l 0
Z
77 607 m 0
82 607 l 0
82 3 l 0
77 3 l 0
77 607 l 0
Z
Spiro
3 403 v
3 407 v
307 407 v
307 403 v
3 203 v
3 207 v
307 207 v
307 203 v
227 607 v
232 607 v
232 3 v
227 3 v
77 607 v
82 607 v
82 3 v
77 3 v
0 0 z
EndSpiro
EndSplineSet
        Fore
        SplineSet
0 400 m 0
0 406 l 0
306 406 l 0
306 400 l 0
0 400 l 0
Z
0 200 m 0
0 206 l 0
306 206 l 0
306 200 l 0
0 200 l 0
Z
224 606 m 0
231 606 l 0
231 0 l 0
224 0 l 0
224 606 l 0
Z
74 606 m 0
81 606 l 0
81 0 l 0
74 0 l 0
74 606 l 0
Z
Spiro
0 400 v
0 406 v
306 406 v
306 400 v
0 200 v
0 206 v
306 206 v
306 200 v
224 606 v
231 606 v
231 0 v
224 0 v
74 606 v
81 606 v
81 0 v
74 0 v
0 0 z
EndSpiro
EndSplineSet
        EndChar
StartChar: $
Encoding: 36 36 0
Width: 349
InSpiro: 1
        Flags: H
        LayerCount: 2
        Back
        SplineSet
307 503 m 0
302 503 l 0
291 533 271 559 245 577 c 0
218 595 186 604 155 603 c 0
116 601 79 584 52 556 c 0
26 529 9 492 7 454 c 0
5 431 8 409 16 388 c 0
24 367 37 349 56 336 c 0
84 315 120 310 155 305 c 0
190 301 227 296 256 276 c 0
274 262 289 243 297 221 c 0
306 200 308 176 307 154 c 0
303 115 286 77 259 49 c 0
231 22 193 4 155 3 c 0
122 1 88 10 61 29 c 0
34 48 13 75 3 107 c 0
7 107 l 0
17 76 37 49 63 31 c 0
89 13 122 4 154 6 c 0
192 7 229 24 256 52 c 0
282 79 299 116 302 155 c 0
303 177 300 199 292 220 c 0
284 241 271 259 253 273 c 0
224 293 187 298 153 303 c 0
118 307 81 312 53 333 c 0
34 346 20 365 11 387 c 0
3 408 0 432 3 455 c 0
6 493 23 531 50 558 c 0
77 586 115 603 154 606 c 0
186 607 220 598 247 580 c 0
275 561 296 534 307 503 c 0
Z
152 609 m 0
157 609 l 0
157 1 l 0
152 1 l 0
152 609 l 0
Z
Spiro
307 503 v
302 503 v
155 603 c
7 454 c
56 336 c
256 276 c
307 154 c
155 3 c
3 107 v
7 107 v
154 6 c
302 155 c
253 273 c
53 333 c
3 455 c
154 606 c
152 609 v
157 609 v
157 1 v
152 1 v
0 0 z
EndSpiro
EndSplineSet
        Fore
        SplineSet
306 500 m 0
299 500 l 0
288 530 268 556 242 574 c 0
216 592 184 601 153 600 c 0
115 598 78 581 51 553 c 0
25 526 8 489 6 452 c 0
4 430 6 407 14 387 c 0
22 366 36 348 54 335 c 0
82 314 118 308 153 304 c 0
188 299 225 295 254 275 c 0
273 261 287 242 296 220 c 0
305 198 307 175 306 152 c 0
302 112 285 74 258 46 c 0
230 19 192 1 153 0 c 0
119 -1 86 8 58 27 c 0
31 46 10 74 0 106 c 0
6 106 l 0
15 75 35 48 61 30 c 0
88 12 120 3 152 5 c 0
189 6 226 23 253 51 c 0
279 78 296 115 299 153 c 0
300 174 298 197 290 217 c 0
282 238 268 256 251 270 c 0
236 280 220 287 203 291 c 0
186 296 168 298 151 300 c 0
116 304 79 309 51 330 c 0
31 343 17 362 9 384 c 0
0 406 -2 429 0 453 c 0
3 491 20 529 47 557 c 0
75 585 112 602 152 605 c 0
185 606 219 597 246 578 c 0
274 559 295 531 306 500 c 0
Z
149 609 m 0
156 609 l 0
156 -3 l 0
149 -3 l 0
149 609 l 0
Z
Spiro
306 500 v
299 500 v
153 600 c
6 452 c
54 335 c
254 275 c
306 152 c
153 0 c
0 106 v
6 106 v
152 5 c
299 153 c
251 270 c
51 330 c
0 453 c
152 605 c
149 609 v
156 609 v
156 -3 v
149 -3 v
0 0 z
EndSpiro
EndSplineSet
        EndChar
StartChar: %
Encoding: 37 37 0
Width: 349
InSpiro: 1
        Flags: H
        LayerCount: 2
        Back
        SplineSet
302 607 m 0
307 607 l 0
7 3 l 0
3 3 l 0
302 607 l 0
Z
3 483 m 0
-5 494 -11 508 -12 522 c 0
-13 536 -11 551 -4 564 c 0
1 577 11 588 24 595 c 0
36 603 50 607 65 607 c 0
79 606 93 602 105 595 c 0
117 587 127 576 133 563 c 0
140 551 142 536 141 522 c 0
140 508 134 494 126 483 c 0
111 464 88 452 64 452 c 0
40 452 17 464 3 483 c 0
Z
123 486 m 0
131 496 136 509 137 523 c 0
138 536 135 550 129 562 c 0
123 574 114 585 102 592 c 0
91 599 77 603 64 603 c 0
50 602 37 599 25 591 c 0
14 584 4 574 -1 562 c 0
-6 550 -9 536 -8 523 c 0
-7 509 -2 496 6 486 c 0
19 467 41 456 64 456 c 0
87 456 109 467 123 486 c 0
Z
306 126 m 0
314 114 319 100 321 86 c 0
322 72 319 57 313 45 c 0
306 32 296 21 284 14 c 0
272 6 258 2 244 3 c 0
229 3 215 7 203 14 c 0
191 22 181 33 175 45 c 0
169 58 166 72 167 86 c 0
169 100 174 114 183 126 c 0
197 145 220 156 244 156 c 0
268 156 291 145 306 126 c 0
Z
186 123 m 0
178 112 173 99 171 85 c 0
170 72 173 58 179 46 c 0
185 34 195 24 206 17 c 0
218 10 231 6 245 7 c 0
258 7 271 10 282 17 c 0
294 25 303 35 309 47 c 0
315 59 318 72 316 86 c 0
315 99 310 112 303 123 c 0
289 141 267 152 244 152 c 0
221 152 199 141 186 123 c 0
Z
Spiro
302 607 v
307 607 v
7 3 v
3 3 v
3 483 c
65 607 c
126 483 c
123 486 c
64 603 c
6 486 c
306 126 c
244 3 c
183 126 c
186 123 c
245 7 c
303 123 c
0 0 z
EndSpiro
EndSplineSet
        Fore
        SplineSet
299 606 m 0
306 606 l 0
6 0 l 0
0 0 l 0
299 606 l 0
Z
0 481 m 0
-8 492 -14 506 -15 520 c 0
-16 535 -13 550 -7 563 c 0
0 575 9 586 21 594 c 0
34 602 48 606 63 606 c 0
77 605 91 601 103 594 c 0
116 586 126 575 132 562 c 0
138 549 141 535 140 520 c 0
138 506 133 492 125 481 c 0
110 461 86 449 62 449 c 0
38 449 14 461 0 481 c 0
Z
120 484 m 0
128 494 133 507 134 521 c 0
135 534 133 548 127 560 c 0
121 572 111 582 100 589 c 0
88 596 75 600 62 600 c 0
48 599 35 596 24 588 c 0
12 581 3 571 -2 559 c 0
-8 547 -10 534 -9 520 c 0
-8 507 -3 494 5 484 c 0
18 466 40 455 62 455 c 0
84 455 106 466 120 484 c 0
Z
305 124 m 0
313 112 318 98 319 84 c 0
321 69 318 55 311 42 c 0
305 29 295 18 282 11 c 0
270 3 256 0 242 0 c 0
227 0 213 4 201 11 c 0
189 19 179 30 172 42 c 0
166 55 163 70 165 84 c 0
166 98 171 112 180 124 c 0
194 143 218 155 242 155 c 0
266 155 290 143 305 124 c 0
Z
185 121 m 0
177 110 172 97 170 84 c 0
169 70 172 57 178 45 c 0
184 33 193 23 205 16 c 0
216 9 229 5 243 6 c 0
256 6 269 9 280 16 c 0
291 23 301 34 306 45 c 0
312 57 315 71 314 84 c 0
312 97 307 110 300 121 c 0
286 138 264 149 242 149 c 0
220 149 198 138 185 121 c 0
Z
Spiro
299 606 v
306 606 v
6 0 v
0 0 v
0 481 c
63 606 c
125 481 c
120 484 c
62 600 c
5 484 c
305 124 c
242 0 c
180 124 c
185 121 c
243 6 c
300 121 c
0 0 z
EndSpiro
EndSplineSet
        EndChar
StartChar: &
Encoding: 38 38 0
Width: 349
InSpiro: 1
        Flags: H
        LayerCount: 2
        Back
        SplineSet
307 3 m 0
302 3 l 0
153 153 l 0
112 194 71 237 44 287 c 0
16 338 1 397 3 455 c 0
4 497 14 540 41 572 c 0
55 588 73 601 93 607 c 0
113 614 135 613 155 606 c 0
168 600 180 591 189 579 c 0
199 568 205 555 209 540 c 0
218 512 215 482 207 454 c 0
189 395 148 346 106 303 c 0
84 281 62 260 44 236 c 0
25 211 10 184 7 154 c 0
2 122 11 89 29 62 c 0
47 36 74 16 105 6 c 0
143 -6 188 -3 224 15 c 0
261 33 289 67 302 107 c 0
307 107 l 0
294 66 264 31 227 12 c 0
189 -6 144 -10 104 3 c 0
72 13 44 33 25 60 c 0
7 88 -1 122 3 155 c 0
7 185 21 213 40 238 c 0
59 262 81 283 103 306 c 0
144 349 184 397 202 455 c 0
210 482 213 511 206 539 c 0
202 552 196 565 187 577 c 0
178 588 167 597 154 603 c 0
134 611 113 611 93 604 c 0
73 598 56 585 43 570 c 0
16 538 7 495 7 454 c 0
6 396 21 339 48 289 c 0
76 239 115 196 156 156 c 0
307 3 l 0
Z
Spiro
307 3 v
302 3 v
153 153 ]
3 455 c
155 606 c
207 454 c
106 303 c
7 154 c
105 6 c
302 107 v
307 107 v
104 3 c
3 155 c
103 306 c
202 455 c
154 603 c
7 454 c
156 156 [
0 0 z
EndSpiro
EndSplineSet
        Fore
        SplineSet
306 0 m 0
299 0 l 0
150 150 l 0
109 191 68 234 40 285 c 0
13 336 -1 394 0 453 c 0
1 495 11 539 39 571 c 0
53 587 71 600 91 607 c 0
111 613 134 613 154 605 c 0
167 599 179 589 188 578 c 0
198 567 204 553 208 539 c 0
217 510 214 480 206 452 c 0
188 393 148 343 105 300 c 0
83 278 61 257 43 233 c 0
24 209 9 181 6 152 c 0
1 120 10 87 27 61 c 0
45 34 72 15 103 5 c 0
141 -7 185 -4 222 14 c 0
258 32 286 66 299 106 c 0
306 106 l 0
293 65 264 29 226 10 c 0
188 -9 142 -13 102 0 c 0
70 10 42 30 23 58 c 0
4 85 -4 120 0 153 c 0
4 183 18 211 37 236 c 0
56 261 78 282 100 305 c 0
141 348 181 395 199 453 c 0
207 480 210 509 202 536 c 0
199 550 193 563 184 574 c 0
175 585 164 594 151 600 c 0
132 607 110 608 90 601 c 0
71 595 54 582 41 566 c 0
15 535 6 492 6 452 c 0
5 394 21 338 48 288 c 0
75 238 115 195 155 155 c 0
306 0 l 0
Z
Spiro
306 0 v
299 0 v
150 150 ]
0 453 c
154 605 c
206 452 c
105 300 c
6 152 c
103 5 c
299 106 v
306 106 v
102 0 c
0 153 c
100 305 c
199 453 c
151 600 c
6 452 c
155 155 [
0 0 z
EndSpiro
EndSplineSet
        EndChar
StartChar: (
Encoding: 40 40 0
Width: 199
InSpiro: 1
        Flags: H
        LayerCount: 2
        Back
        SplineSet
157 609 m 0
157 605 l 0
64 535 6 420 7 305 c 0
7 189 64 74 157 5 c 0
157 1 l 0
61 70 2 187 3 305 c 0
3 422 61 539 157 609 c 0
Z
Spiro
157 609 v
157 605 v
7 305 c
157 5 v
157 1 v
3 305 c
0 0 z
EndSpiro
EndSplineSet
        Fore
        SplineSet
156 609 m 0
156 603 l 0
63 533 5 418 6 303 c 0
6 187 63 72 156 3 c 0
156 -3 l 0
59 66 0 184 0 303 c 0
0 421 59 539 156 609 c 0
Z
Spiro
156 609 v
156 603 v
6 303 c
156 3 v
156 -3 v
0 303 c
0 0 z
EndSpiro
EndSplineSet
        EndChar
StartChar: )
Encoding: 41 41 0
Width: 245
InSpiro: 1
        Flags: H
        LayerCount: 2
        Back
        SplineSet
46 605 m 0
46 609 l 0
141 539 201 423 201 305 c 0
200 186 141 70 46 1 c 0
46 5 l 0
138 74 196 189 196 305 c 0
196 420 138 535 46 605 c 0
Z
Spiro
46 605 v
46 609 v
201 305 c
46 1 v
46 5 v
196 305 c
0 0 z
EndSpiro
EndSplineSet
        Fore
        SplineSet
45 603 m 0
45 609 l 0
141 539 202 422 202 303 c 0
202 183 141 66 45 -3 c 0
45 3 l 0
137 72 195 187 195 303 c 0
195 418 137 533 45 603 c 0
Z
Spiro
45 603 v
45 609 v
202 303 c
45 -3 v
45 3 v
195 303 c
0 0 z
EndSpiro
EndSplineSet
        EndChar
StartChar: +
Encoding: 43 43 0
Width: 349
InSpiro: 1
        Flags: H
        LayerCount: 2
        Back
        SplineSet
3 303 m 0
3 307 l 0
307 307 l 0
307 303 l 0
3 303 l 0
Z
152 457 m 0
157 457 l 0
157 153 l 0
152 153 l 0
152 457 l 0
Z
Spiro
3 303 v
3 307 v
307 307 v
307 303 v
152 457 v
157 457 v
157 153 v
152 153 v
0 0 z
EndSpiro
EndSplineSet
        Fore
        SplineSet
0 300 m 0
0 306 l 0
306 306 l 0
306 300 l 0
0 300 l 0
Z
149 456 m 0
156 456 l 0
156 150 l 0
149 150 l 0
149 456 l 0
Z
Spiro
0 300 v
0 306 v
306 306 v
306 300 v
149 456 v
156 456 v
156 150 v
149 150 v
0 0 z
EndSpiro
EndSplineSet
        EndChar
StartChar: -
Encoding: 45 45 0
Width: 289
InSpiro: 1
        Flags: H
        LayerCount: 2
        Back
        SplineSet
3 303 m 0
3 307 l 0
247 307 l 0
247 303 l 0
3 303 l 0
Z
Spiro
3 303 v
3 307 v
247 307 v
247 303 v
0 0 z
EndSpiro
EndSplineSet
        Fore
        SplineSet
0 300 m 0
0 306 l 0
246 306 l 0
246 300 l 0
0 300 l 0
Z
Spiro
0 300 v
0 306 v
246 306 v
246 300 v
0 0 z
EndSpiro
EndSplineSet
        EndChar
StartChar: .
Encoding: 46 46 0
Width: 199
InSpiro: 1
        Flags: H
        LayerCount: 2
        Back
        SplineSet
155 -2 m 0
156 -2 158 -1 159 0 c 0
161 1 162 3 162 5 c 0
161 6 161 8 159 9 c 0
158 11 156 11 155 12 c 0
153 12 151 11 150 9 c 0
148 8 148 6 148 5 c 0
147 3 148 1 150 0 c 0
151 -1 153 -2 155 -2 c 0
Z
Spiro
155 -2 c
162 5 c
155 12 c
148 5 c
0 0 z
EndSpiro
EndSplineSet
        Fore
        SplineSet
153 -5 m 0
155 -5 157 -4 158 -2 c 0
160 -1 161 0 161 3 c 0
160 5 160 7 158 8 c 0
157 10 155 10 153 11 c 0
150 11 148 10 147 8 c 0
145 7 145 5 145 3 c 0
144 0 145 -1 147 -2 c 0
148 -4 150 -5 153 -5 c 0
Z
Spiro
153 -5 c
161 3 c
153 11 c
145 3 c
0 0 z
EndSpiro
EndSplineSet
        EndChar
StartChar: /
Encoding: 47 47 0
Width: 395
InSpiro: 1
        Flags: H
        LayerCount: 2
        Back
        SplineSet
346 609 m 0
351 609 l 0
51 1 l 0
46 1 l 0
346 609 l 0
Z
Spiro
346 609 v
351 609 v
51 1 v
46 1 v
0 0 z
EndSpiro
EndSplineSet
        Fore
        SplineSet
345 609 m 0
352 609 l 0
52 -3 l 0
45 -3 l 0
345 609 l 0
Z
Spiro
345 609 v
352 609 v
52 -3 v
45 -3 v
0 0 z
EndSpiro
EndSplineSet
        EndChar
StartChar: 0
Encoding: 48 48 0
Width: 349
InSpiro: 1
        Flags: H
        LayerCount: 2
        Back
        SplineSet
7 304 m 0
7 241 2 178 21 119 c 0
31 89 47 61 70 40 c 0
92 19 122 6 154 6 c 0
185 5 215 19 238 40 c 0
261 61 277 89 286 118 c 0
306 178 301 241 302 304 c 0
302 366 306 430 287 489 c 0
277 519 261 547 238 568 c 0
215 589 185 603 154 603 c 0
122 602 92 589 69 567 c 0
47 546 31 518 21 489 c 0
2 430 6 366 7 304 c 0
Z
155 606 m 0
186 605 217 592 240 571 c 0
263 550 280 521 290 492 c 0
310 432 306 367 307 305 c 0
307 241 310 177 290 117 c 0
280 87 264 59 240 37 c 0
217 16 186 3 155 3 c 0
123 2 92 16 69 37 c 0
45 59 29 87 19 117 c 0
0 177 2 241 3 305 c 0
3 367 0 432 19 492 c 0
29 521 46 550 69 571 c 0
92 592 123 605 155 606 c 0
Z
302 607 m 0
307 607 l 0
7 3 l 0
3 3 l 0
302 607 l 0
Z
Spiro
7 304 c
154 6 c
302 304 c
154 603 c
155 606 c
307 305 c
155 3 c
3 305 c
302 607 v
307 607 v
7 3 v
3 3 v
0 0 z
EndSpiro
EndSplineSet
        Fore
        SplineSet
6 302 m 0
6 240 1 176 20 118 c 0
30 88 45 60 68 39 c 0
91 18 121 5 152 5 c 0
182 4 213 18 235 39 c 0
258 60 274 88 284 117 c 0
303 176 298 240 299 302 c 0
299 364 303 427 284 486 c 0
274 516 259 544 236 565 c 0
213 586 183 600 152 600 c 0
121 599 90 586 68 565 c 0
45 543 29 516 20 486 c 0
1 427 5 363 6 302 c 0
Z
153 605 m 0
184 604 215 591 238 570 c 0
262 548 278 520 289 490 c 0
309 431 305 366 306 303 c 0
306 239 309 174 289 114 c 0
279 84 262 56 239 35 c 0
215 13 184 0 153 0 c 0
121 0 90 13 66 35 c 0
43 56 26 84 16 114 c 0
-3 174 0 239 0 303 c 0
0 366 -3 431 16 490 c 0
27 520 43 548 67 570 c 0
90 591 121 604 153 605 c 0
Z
299 606 m 0
306 606 l 0
6 0 l 0
0 0 l 0
299 606 l 0
Z
Spiro
6 302 c
152 5 c
299 302 c
152 600 c
153 605 c
306 303 c
153 0 c
0 303 c
299 606 v
306 606 v
6 0 v
0 0 v
0 0 z
EndSpiro
EndSplineSet
        EndChar
StartChar: 7
Encoding: 55 55 0
Width: 349
InSpiro: 1
        Flags: H
        LayerCount: 2
        Back
        SplineSet
3 603 m 0
3 607 l 0
307 607 l 0
307 607 l 0
157 3 l 0
152 3 l 0
302 603 l 0
3 603 l 0
Z
Spiro
3 603 v
3 607 v
307 607 v
307 607 v
157 3 v
152 3 v
302 603 v
0 0 z
EndSpiro
EndSplineSet
        Fore
        SplineSet
0 600 m 0
0 606 l 0
306 606 l 0
306 606 l 0
156 0 l 0
149 0 l 0
299 600 l 0
0 600 l 0
Z
Spiro
0 600 v
0 606 v
306 606 v
306 606 v
156 0 v
149 0 v
299 600 v
0 0 z
EndSpiro
EndSplineSet
        EndChar
StartChar: 8
Encoding: 56 56 0
Width: 349
InSpiro: 1
        Flags: H
        LayerCount: 2
        Back
        SplineSet
155 603 m 0
115 603 74 589 45 562 c 0
30 549 19 532 12 513 c 0
5 495 3 474 7 455 c 0
10 437 18 420 28 405 c 0
38 390 51 377 65 366 c 0
93 342 124 324 156 306 c 0
187 287 219 268 247 245 c 0
261 233 274 220 285 205 c 0
295 190 303 173 307 155 c 0
310 134 308 113 301 94 c 0
294 75 282 57 267 43 c 0
236 16 195 2 154 3 c 0
113 3 72 16 42 44 c 0
27 58 15 75 8 94 c 0
1 114 0 134 3 155 c 0
6 172 14 189 24 205 c 0
34 220 47 233 61 245 c 0
89 268 121 287 153 306 c 0
184 324 215 342 243 366 c 0
257 377 270 390 280 405 c 0
290 420 298 437 302 455 c 0
305 474 303 494 296 513 c 0
289 532 278 548 263 562 c 0
234 589 194 602 155 603 c 0
Z
307 454 m 0
303 435 295 418 285 403 c 0
274 388 261 375 247 363 c 0
219 340 187 321 156 303 c 0
124 284 93 266 65 242 c 0
51 231 38 218 28 203 c 0
18 188 10 171 7 154 c 0
3 134 5 114 12 95 c 0
19 76 31 60 45 46 c 0
74 19 115 6 155 7 c 0
194 7 234 20 263 47 c 0
278 60 289 77 296 95 c 0
303 114 305 134 302 154 c 0
298 171 290 188 280 203 c 0
270 218 257 231 243 242 c 0
215 266 184 284 153 303 c 0
121 321 89 340 61 363 c 0
47 375 34 388 24 403 c 0
14 419 6 436 3 454 c 0
0 474 1 495 8 514 c 0
15 533 27 550 41 564 c 0
71 592 113 606 154 607 c 0
195 607 237 593 267 565 c 0
282 551 294 534 301 514 c 0
308 495 310 474 307 454 c 0
Z
Spiro
155 603 c
7 455 c
156 306 a
256 246 h
307 155 c
154 3 c
3 155 c
153 306 a
253 366 h
302 455 c
307 454 c
156 303 a
56 243 h
7 154 c
155 7 c
302 154 c
153 303 a
53 363 h
3 454 c
154 607 c
0 0 z
EndSpiro
EndSplineSet
        Fore
        SplineSet
153 600 m 0
113 600 73 587 44 560 c 0
29 546 18 529 11 511 c 0
4 492 2 472 6 453 c 0
9 435 17 418 27 403 c 0
37 389 50 376 64 364 c 0
91 341 123 323 154 305 c 0
185 285 217 267 246 243 c 0
260 231 273 218 284 203 c 0
294 188 302 171 306 153 c 0
309 132 307 111 300 91 c 0
293 72 281 55 265 41 c 0
235 13 193 0 152 0 c 0
111 0 69 14 39 41 c 0
24 55 12 73 5 92 c 0
-1 111 -3 132 0 153 c 0
3 171 11 188 21 203 c 0
32 218 45 231 59 243 c 0
87 267 119 286 151 305 c 0
181 323 213 341 240 364 c 0
254 376 267 389 277 403 c 0
287 418 295 435 299 453 c 0
302 472 300 492 293 511 c 0
286 529 275 546 261 559 c 0
232 586 192 599 153 600 c 0
Z
306 452 m 0
302 433 294 416 283 401 c 0
273 386 260 373 246 361 c 0
217 337 185 319 154 300 c 0
123 281 91 263 64 240 c 0
50 228 37 215 27 201 c 0
16 186 9 169 6 152 c 0
2 132 4 112 11 93 c 0
18 75 29 58 44 45 c 0
73 18 113 5 153 6 c 0
192 6 232 19 260 45 c 0
275 59 286 75 293 94 c 0
300 112 302 132 299 152 c 0
295 169 288 186 277 201 c 0
267 215 254 228 240 240 c 0
213 263 181 281 151 300 c 0
119 318 87 337 59 361 c 0
45 373 32 386 21 401 c 0
11 416 3 433 0 452 c 0
-3 472 -1 493 5 512 c 0
12 532 24 549 39 563 c 0
69 591 110 605 152 606 c 0
193 606 235 592 266 564 c 0
281 550 293 532 300 513 c 0
307 493 309 472 306 452 c 0
Z
Spiro
153 600 c
6 453 c
154 305 a
254 245 h
306 153 c
152 0 c
0 153 c
151 305 a
251 365 h
299 453 c
306 452 c
154 300 a
54 240 h
6 152 c
153 6 c
299 152 c
151 300 a
51 360 h
0 452 c
152 606 c
0 0 z
EndSpiro
EndSplineSet
        EndChar
StartChar: A
Encoding: 65 65 0
Width: 349
InSpiro: 1
        Flags: H
        LayerCount: 2
        Back
        SplineSet
7 3 m 0
3 3 l 0
39 155 l 0
152 607 l 0
157 607 l 0
270 155 l 0
307 3 l 0
302 3 l 0
265 154 l 0
155 596 l 0
44 154 l 0
7 3 l 0
Z
39 153 m 0
39 157 l 0
270 157 l 0
270 153 l 0
39 153 l 0
Z
Spiro
7 3 v
3 3 v
39 155 v
152 607 v
157 607 v
270 155 v
307 3 v
302 3 v
265 154 v
155 596 v
44 154 v
39 153 v
39 157 v
270 157 v
270 153 v
0 0 z
EndSpiro
EndSplineSet
        Fore
        SplineSet
6 0 m 0
0 0 l 0
36 153 l 0
149 606 l 0
156 606 l 0
269 153 l 0
306 0 l 0
299 0 l 0
262 152 l 0
153 590 l 0
43 152 l 0
6 0 l 0
Z
36 150 m 0
36 156 l 0
269 156 l 0
269 150 l 0
36 150 l 0
Z
Spiro
6 0 v
0 0 v
36 153 v
149 606 v
156 606 v
269 153 v
306 0 v
299 0 v
262 152 v
153 590 v
43 152 v
36 150 v
36 156 v
269 156 v
269 150 v
0 0 z
EndSpiro
EndSplineSet
        EndChar
StartChar: B
Encoding: 66 66 0
Width: 349
InSpiro: 1
        Flags: H
        LayerCount: 2
        Back
        SplineSet
7 3 m 0
3 3 l 0
3 607 l 0
3 607 l 0
155 607 l 0
175 607 196 606 216 601 c 0
236 595 255 585 269 570 c 0
284 555 294 536 299 516 c 0
305 496 307 475 307 455 c 0
307 434 305 413 299 393 c 0
294 373 284 354 269 339 c 0
255 324 236 314 216 308 c 0
196 303 175 302 155 303 c 0
3 303 l 0
3 307 l 0
155 307 l 0
175 307 195 307 214 312 c 0
234 318 252 328 266 342 c 0
280 357 289 375 295 395 c 0
300 414 302 434 302 455 c 0
302 475 300 495 295 514 c 0
289 534 280 552 266 567 c 0
252 581 234 591 214 597 c 0
195 602 175 603 155 603 c 0
7 603 l 0
7 3 l 0
Z
3 303 m 0
3 307 l 0
155 307 l 0
175 307 196 306 216 301 c 0
236 295 255 285 269 270 c 0
284 255 294 236 299 216 c 0
305 196 307 175 307 155 c 0
307 134 305 113 299 93 c 0
294 73 284 54 269 39 c 0
255 24 236 14 216 8 c 0
196 3 175 2 155 3 c 0
3 3 l 0
3 7 l 0
155 7 l 0
175 6 195 7 214 12 c 0
234 18 252 28 266 42 c 0
280 57 289 75 295 95 c 0
300 114 302 134 302 155 c 0
302 175 300 195 295 214 c 0
289 234 280 252 266 267 c 0
252 281 234 291 214 297 c 0
195 302 175 303 155 303 c 0
3 303 l 0
Z
Spiro
7 3 v
3 3 v
3 607 v
3 607 v
155 607 ]
307 455 c
155 303 [
3 303 v
3 307 v
155 307 ]
302 455 c
155 603 [
7 603 v
3 303 v
3 307 v
155 307 ]
307 155 c
155 3 [
3 3 v
3 7 v
155 7 ]
302 155 c
155 303 [
0 0 z
EndSpiro
EndSplineSet
        Fore
        SplineSet
6 0 m 0
0 0 l 0
0 606 l 0
0 606 l 0
153 606 l 0
173 606 194 605 215 600 c 0
235 594 254 584 268 569 c 0
283 554 293 535 298 514 c 0
304 494 306 473 306 453 c 0
306 432 304 411 298 390 c 0
293 370 283 351 268 336 c 0
254 321 235 311 215 305 c 0
194 300 173 299 153 300 c 0
0 300 l 0
0 306 l 0
153 306 l 0
172 306 193 306 212 311 c 0
231 317 249 327 263 341 c 0
277 356 287 374 292 393 c 0
297 412 299 433 299 453 c 0
299 472 297 493 292 512 c 0
287 531 277 549 263 564 c 0
249 578 231 589 212 594 c 0
193 599 172 600 153 600 c 0
6 600 l 0
6 0 l 0
Z
0 300 m 0
0 306 l 0
153 306 l 0
173 306 194 305 215 300 c 0
235 294 254 284 268 269 c 0
283 254 293 235 298 214 c 0
304 194 306 173 306 153 c 0
306 132 304 111 298 90 c 0
293 70 283 51 268 36 c 0
254 21 235 11 215 5 c 0
194 0 173 0 153 0 c 0
0 0 l 0
0 6 l 0
153 6 l 0
172 6 193 6 212 11 c 0
231 17 249 27 263 41 c 0
277 56 287 74 292 93 c 0
297 112 299 133 299 153 c 0
299 172 297 193 292 212 c 0
287 231 277 249 263 264 c 0
249 278 231 289 212 294 c 0
193 299 172 300 153 300 c 0
0 300 l 0
Z
Spiro
6 0 v
0 0 v
0 606 v
0 606 v
153 606 ]
306 453 c
153 300 [
0 300 v
0 306 v
153 306 ]
299 453 c
153 600 [
6 600 v
0 300 v
0 306 v
153 306 ]
306 153 c
153 0 [
0 0 v
0 6 v
153 6 ]
299 153 c
153 300 [
0 0 z
EndSpiro
EndSplineSet
        EndChar
StartChar: C
Encoding: 67 67 0
Width: 349
InSpiro: 1
        Flags: H
        LayerCount: 2
        Back
        SplineSet
307 503 m 0
302 503 l 0
295 534 275 563 248 582 c 0
221 600 187 608 155 603 c 0
125 598 97 582 75 561 c 0
54 539 38 513 28 484 c 0
7 427 7 365 7 305 c 0
6 244 6 181 27 124 c 0
38 96 53 69 75 47 c 0
97 26 124 10 155 6 c 0
187 0 221 8 248 27 c 0
275 45 295 74 302 107 c 0
307 107 l 0
300 73 279 43 251 24 c 0
223 4 187 -2 154 3 c 0
123 8 95 24 73 45 c 0
51 67 35 94 25 123 c 0
3 180 2 243 3 305 c 0
3 366 3 428 25 486 c 0
36 515 52 542 74 563 c 0
95 584 123 600 154 606 c 0
187 611 223 604 251 585 c 0
279 566 299 536 307 503 c 0
Z
Spiro
307 503 v
302 503 v
155 603 c
7 305 c
155 6 c
302 107 v
307 107 v
154 3 c
3 305 c
154 606 c
0 0 z
EndSpiro
EndSplineSet
        Fore
        SplineSet
306 500 m 0
299 500 l 0
292 531 272 560 246 579 c 0
219 597 185 605 153 600 c 0
123 595 95 579 74 558 c 0
52 537 37 510 26 481 c 0
6 425 6 363 6 303 c 0
5 242 5 180 26 123 c 0
36 94 52 68 73 46 c 0
95 25 123 9 153 5 c 0
185 0 219 7 246 26 c 0
273 44 292 73 299 106 c 0
306 106 l 0
299 72 278 41 250 21 c 0
222 2 185 -5 152 0 c 0
121 5 93 21 71 42 c 0
49 64 33 91 22 120 c 0
0 178 0 241 0 303 c 0
0 364 1 427 22 485 c 0
33 513 49 540 71 562 c 0
93 583 121 599 152 605 c 0
185 610 221 603 250 583 c 0
278 564 299 533 306 500 c 0
Z
Spiro
306 500 v
299 500 v
153 600 c
6 303 c
153 5 c
299 106 v
306 106 v
152 0 c
0 303 c
152 605 c
0 0 z
EndSpiro
EndSplineSet
        EndChar
StartChar: E
Encoding: 69 69 0
Width: 349
InSpiro: 1
        Flags: H
        LayerCount: 2
        Back
        SplineSet
307 607 m 0
307 603 l 0
7 603 l 0
7 7 l 0
307 7 l 0
307 3 l 0
3 3 l 0
3 3 l 0
3 607 l 0
3 607 l 0
307 607 l 0
Z
3 303 m 0
3 307 l 0
307 307 l 0
307 303 l 0
3 303 l 0
Z
Spiro
307 607 v
307 603 v
7 603 v
7 7 v
307 7 v
307 3 v
3 3 v
3 3 v
3 607 v
3 607 v
3 303 v
3 307 v
307 307 v
307 303 v
0 0 z
EndSpiro
EndSplineSet
        Fore
        SplineSet
306 606 m 0
306 600 l 0
6 600 l 0
6 6 l 0
306 6 l 0
306 0 l 0
0 0 l 0
0 0 l 0
0 606 l 0
0 606 l 0
306 606 l 0
Z
0 300 m 0
0 306 l 0
306 306 l 0
306 300 l 0
0 300 l 0
Z
Spiro
306 606 v
306 600 v
6 600 v
6 6 v
306 6 v
306 0 v
0 0 v
0 0 v
0 606 v
0 606 v
0 300 v
0 306 v
306 306 v
306 300 v
0 0 z
EndSpiro
EndSplineSet
        EndChar
StartChar: J
Encoding: 74 74 0
Width: 349
InSpiro: 1
        Flags: H
        LayerCount: 2
        Back
        SplineSet
3 603 m 0
3 607 l 0
307 607 l 0
307 607 l 0
307 305 l 0
306 243 306 180 284 122 c 0
274 93 257 66 235 45 c 0
213 23 185 7 155 3 c 0
121 -2 86 5 58 24 c 0
30 43 10 73 3 107 c 0
7 107 l 0
13 74 33 45 60 26 c 0
87 8 121 0 154 6 c 0
183 10 211 26 233 47 c 0
254 69 270 96 280 124 c 0
301 181 301 244 302 305 c 0
302 603 l 0
3 603 l 0
Z
Spiro
3 603 v
3 607 v
307 607 v
307 607 v
307 305 ]
155 3 c
3 107 v
7 107 v
154 6 c
302 305 [
302 603 v
0 0 z
EndSpiro
EndSplineSet
        Fore
        SplineSet
0 600 m 0
0 606 l 0
306 606 l 0
306 606 l 0
306 303 l 0
305 241 305 177 283 119 c 0
272 90 256 63 234 42 c 0
211 20 183 4 153 0 c 0
119 -5 83 2 55 22 c 0
26 41 6 72 0 106 c 0
6 106 l 0
12 73 31 44 58 26 c 0
85 7 119 0 152 5 c 0
181 9 209 25 230 46 c 0
252 68 267 95 278 123 c 0
298 180 298 242 299 303 c 0
299 600 l 0
0 600 l 0
Z
Spiro
0 600 v
0 606 v
306 606 v
306 606 v
306 303 ]
153 0 c
0 106 v
6 106 v
152 5 c
299 303 [
299 600 v
0 0 z
EndSpiro
EndSplineSet
        EndChar
StartChar: K
Encoding: 75 75 0
Width: 349
InSpiro: 1
        Flags: H
        LayerCount: 2
        Back
        SplineSet
302 607 m 0
307 607 l 0
7 304 l 0
7 3 l 0
3 3 l 0
3 307 l 0
3 307 l 0
302 607 l 0
Z
3 607 m 0
7 607 l 0
7 305 l 0
307 3 l 0
302 3 l 0
3 303 l 0
3 303 l 0
3 607 l 0
Z
Spiro
302 607 v
307 607 v
7 304 v
7 3 v
3 3 v
3 307 v
3 307 v
3 607 v
7 607 v
7 305 v
307 3 v
302 3 v
3 303 v
3 303 v
0 0 z
EndSpiro
EndSplineSet
        Fore
        SplineSet
299 606 m 0
306 606 l 0
6 301 l 0
6 0 l 0
0 0 l 0
0 306 l 0
0 306 l 0
299 606 l 0
Z
0 606 m 0
6 606 l 0
6 304 l 0
306 0 l 0
299 0 l 0
0 300 l 0
0 300 l 0
0 606 l 0
Z
Spiro
299 606 v
306 606 v
6 301 v
6 0 v
0 0 v
0 306 v
0 306 v
0 606 v
6 606 v
6 304 v
306 0 v
299 0 v
0 300 v
0 300 v
0 0 z
EndSpiro
EndSplineSet
        EndChar
StartChar: L
Encoding: 76 76 0
Width: 349
InSpiro: 1
        Flags: H
        LayerCount: 2
        Back
        SplineSet
3 607 m 0
7 607 l 0
7 7 l 0
307 7 l 0
307 3 l 0
3 3 l 0
3 3 l 0
3 607 l 0
Z
Spiro
3 607 v
7 607 v
7 7 v
307 7 v
307 3 v
3 3 v
3 3 v
0 0 z
EndSpiro
EndSplineSet
        Fore
        SplineSet
0 606 m 0
6 606 l 0
6 6 l 0
306 6 l 0
306 0 l 0
0 0 l 0
0 0 l 0
0 606 l 0
Z
Spiro
0 606 v
6 606 v
6 6 v
306 6 v
306 0 v
0 0 v
0 0 v
0 0 z
EndSpiro
EndSplineSet
        EndChar
StartChar: O
Encoding: 79 79 0
Width: 349
InSpiro: 1
        Flags: H
        LayerCount: 2
        Back
        SplineSet
7 305 m 0
7 243 8 180 27 122 c 0
36 93 51 65 72 43 c 0
94 21 124 6 155 7 c 0
185 7 214 21 236 43 c 0
258 65 272 93 282 122 c 0
300 180 302 242 302 304 c 0
301 365 300 428 282 487 c 0
272 516 258 544 236 566 c 0
214 588 184 603 154 603 c 0
123 602 93 587 72 566 c 0
50 544 35 516 26 487 c 0
7 428 6 366 7 305 c 0
Z
155 607 m 0
186 607 216 592 238 570 c 0
260 548 275 520 285 490 c 0
305 431 307 367 307 305 c 0
306 242 305 178 285 119 c 0
275 89 260 61 237 39 c 0
215 17 185 2 154 3 c 0
122 3 93 18 70 39 c 0
48 61 33 90 24 119 c 0
4 178 3 241 3 304 c 0
3 366 4 430 24 489 c 0
33 519 49 547 71 569 c 0
93 591 123 606 155 607 c 0
Z
Spiro
7 305 o
155 7 c
302 304 o
154 603 c
155 607 c
307 305 o
154 3 c
3 304 o
0 0 z
EndSpiro
EndSplineSet
        Fore
        SplineSet
6 303 m 0
6 241 7 179 25 121 c 0
35 92 49 64 71 42 c 0
92 20 122 5 153 6 c 0
183 6 212 20 234 42 c 0
255 64 270 91 279 120 c 0
298 178 299 241 299 302 c 0
298 363 298 425 279 484 c 0
270 513 255 541 233 563 c 0
212 585 182 600 152 600 c 0
121 599 92 585 70 563 c 0
49 541 34 513 25 484 c 0
6 426 5 364 6 303 c 0
Z
153 606 m 0
184 606 214 591 236 569 c 0
259 547 274 518 284 489 c 0
304 429 306 365 306 303 c 0
305 240 304 176 284 116 c 0
274 86 258 58 236 36 c 0
213 14 183 0 152 0 c 0
120 0 90 15 68 37 c 0
46 58 31 87 21 116 c 0
1 175 0 239 0 302 c 0
0 364 1 428 21 488 c 0
31 518 46 546 68 568 c 0
91 590 121 605 153 606 c 0
Z
Spiro
6 303 o
153 6 c
299 302 o
152 600 c
153 606 c
306 303 o
152 0 c
0 302 o
0 0 z
EndSpiro
EndSplineSet
        EndChar
StartChar: R
Encoding: 82 82 0
Width: 349
InSpiro: 1
        Flags: H
        LayerCount: 2
        Back
        SplineSet
7 3 m 0
3 3 l 0
3 607 l 0
3 607 l 0
155 607 l 0
175 607 196 606 216 601 c 0
236 595 255 585 269 570 c 0
284 555 294 536 299 516 c 0
305 496 307 475 307 455 c 0
307 434 305 413 299 393 c 0
294 373 284 354 269 339 c 0
255 324 236 314 216 308 c 0
196 303 175 302 155 303 c 0
3 303 l 0
3 307 l 0
155 307 l 0
175 307 195 307 214 312 c 0
234 318 252 328 266 342 c 0
280 357 289 375 295 395 c 0
300 414 302 434 302 455 c 0
302 475 300 495 295 514 c 0
289 534 280 552 266 567 c 0
252 581 234 591 214 597 c 0
195 602 175 603 155 603 c 0
7 603 l 0
7 3 l 0
Z
3 303 m 0
3 307 l 0
157 307 l 0
157 307 l 0
307 3 l 0
302 3 l 0
153 303 l 0
3 303 l 0
Z
Spiro
7 3 v
3 3 v
3 607 v
3 607 v
155 607 ]
307 455 c
155 303 [
3 303 v
3 307 v
155 307 ]
302 455 c
155 603 [
7 603 v
3 303 v
3 307 v
157 307 v
157 307 v
307 3 v
302 3 v
153 303 v
0 0 z
EndSpiro
EndSplineSet
        Fore
        SplineSet
6 0 m 0
0 0 l 0
0 606 l 0
0 606 l 0
153 606 l 0
173 606 194 605 215 600 c 0
235 594 254 584 268 569 c 0
283 554 293 535 298 514 c 0
304 494 306 473 306 453 c 0
306 432 304 411 298 390 c 0
293 370 283 351 268 336 c 0
254 321 235 311 215 305 c 0
194 300 173 299 153 300 c 0
0 300 l 0
0 306 l 0
153 306 l 0
172 306 193 306 212 311 c 0
231 317 249 327 263 341 c 0
277 356 287 374 292 393 c 0
297 412 299 433 299 453 c 0
299 472 297 493 292 512 c 0
287 531 277 549 263 564 c 0
249 578 231 589 212 594 c 0
193 599 172 600 153 600 c 0
6 600 l 0
6 0 l 0
Z
0 300 m 0
0 306 l 0
156 306 l 0
156 306 l 0
306 0 l 0
299 0 l 0
151 300 l 0
0 300 l 0
Z
Spiro
6 0 v
0 0 v
0 606 v
0 606 v
153 606 ]
306 453 c
153 300 [
0 300 v
0 306 v
153 306 ]
299 453 c
153 600 [
6 600 v
0 300 v
0 306 v
156 306 v
156 306 v
306 0 v
299 0 v
151 300 v
0 0 z
EndSpiro
EndSplineSet
        EndChar
StartChar: T
Encoding: 84 84 0
Width: 349
InSpiro: 1
        Flags: H
        LayerCount: 2
        Back
        SplineSet
3 603 m 0
3 607 l 0
307 607 l 0
307 603 l 0
3 603 l 0
Z
152 607 m 0
157 607 l 0
157 3 l 0
152 3 l 0
152 607 l 0
Z
Spiro
3 603 v
3 607 v
307 607 v
307 603 v
152 607 v
157 607 v
157 3 v
152 3 v
0 0 z
EndSpiro
EndSplineSet
        Fore
        SplineSet
0 600 m 0
0 606 l 0
306 606 l 0
306 600 l 0
0 600 l 0
Z
149 606 m 0
156 606 l 0
156 0 l 0
149 0 l 0
149 606 l 0
Z
Spiro
0 600 v
0 606 v
306 606 v
306 600 v
149 606 v
156 606 v
156 0 v
149 0 v
0 0 z
EndSpiro
EndSplineSet
        EndChar
StartChar: U
Encoding: 85 85 0
Width: 349
InSpiro: 1
        Flags: H
        LayerCount: 2
        Back
        SplineSet
3 607 m 0
7 607 l 0
7 305 l 0
7 243 5 180 24 121 c 0
34 92 49 64 71 43 c 0
93 21 123 7 154 7 c 0
184 6 214 21 237 42 c 0
259 63 274 91 284 121 c 0
303 180 301 243 302 305 c 0
302 607 l 0
307 607 l 0
307 305 l 0
307 242 308 178 288 118 c 0
278 88 262 60 239 38 c 0
216 17 186 3 155 3 c 0
123 3 93 17 70 38 c 0
47 60 31 88 21 118 c 0
1 177 3 242 3 305 c 0
3 607 l 0
Z
Spiro
3 607 v
7 607 v
7 305 ]
154 7 c
302 305 [
302 607 v
307 607 v
307 305 ]
155 3 c
3 305 [
0 0 z
EndSpiro
EndSplineSet
        Fore
        SplineSet
0 606 m 0
6 606 l 0
6 303 l 0
6 241 4 178 23 120 c 0
32 91 47 63 69 41 c 0
91 20 121 6 152 6 c 0
182 5 212 20 234 41 c 0
256 62 271 90 281 120 c 0
300 178 298 241 299 303 c 0
299 606 l 0
306 606 l 0
306 303 l 0
306 239 307 175 286 115 c 0
276 85 260 57 238 35 c 0
215 14 184 0 153 0 c 0
121 0 90 14 68 35 c 0
45 57 29 85 19 115 c 0
-1 175 0 239 0 303 c 0
0 606 l 0
Z
Spiro
0 606 v
6 606 v
6 303 ]
152 6 c
299 303 [
299 606 v
306 606 v
306 303 ]
153 0 c
0 303 [
0 0 z
EndSpiro
EndSplineSet
        EndChar
StartChar: W
Encoding: 87 87 0
Width: 649
InSpiro: 1
        Flags: H
        LayerCount: 2
        Back
        SplineSet
3 607 m 0
7 607 l 0
155 13 l 0
302 607 l 0
307 607 l 0
455 13 l 0
602 607 l 0
607 607 l 0
457 3 l 0
452 3 l 0
305 596 l 0
157 3 l 0
152 3 l 0
3 607 l 0
Z
Spiro
3 607 v
7 607 v
155 13 v
302 607 v
307 607 v
455 13 v
602 607 v
607 607 v
457 3 v
452 3 v
305 596 v
157 3 v
152 3 v
0 0 z
EndSpiro
EndSplineSet
        Fore
        SplineSet
0 606 m 0
6 606 l 0
153 15 l 0
299 606 l 0
306 606 l 0
453 15 l 0
599 606 l 0
606 606 l 0
456 0 l 0
449 0 l 0
303 590 l 0
156 0 l 0
149 0 l 0
0 606 l 0
Z
Spiro
0 606 v
6 606 v
153 15 v
299 606 v
306 606 v
453 15 v
599 606 v
606 606 v
456 0 v
449 0 v
303 590 v
156 0 v
149 0 v
0 0 z
EndSpiro
EndSplineSet
        EndChar
StartChar: Z
Encoding: 90 90 0
Width: 349
InSpiro: 1
        Flags: H
        LayerCount: 2
        Back
        SplineSet
3 603 m 0
3 607 l 0
307 607 l 0
307 607 l 0
8 7 l 0
307 7 l 0
307 3 l 0
3 3 l 0
3 3 l 0
301 603 l 0
3 603 l 0
Z
Spiro
3 603 v
3 607 v
307 607 v
307 607 v
8 7 v
307 7 v
307 3 v
3 3 v
3 3 v
301 603 v
0 0 z
EndSpiro
EndSplineSet
        Fore
        SplineSet
0 600 m 0
0 606 l 0
306 606 l 0
306 606 l 0
7 6 l 0
306 6 l 0
306 0 l 0
0 0 l 0
0 0 l 0
298 600 l 0
0 600 l 0
Z
Spiro
0 600 v
0 606 v
306 606 v
306 606 v
7 6 v
306 6 v
306 0 v
0 0 v
0 0 v
298 600 v
0 0 z
EndSpiro
EndSplineSet
        EndChar
StartChar: c
Encoding: 99 99 0
Width: 349
InSpiro: 1
        Flags: H
        LayerCount: 2
        Back
        SplineSet
307 305 m 0
302 305 l 0
293 335 272 363 246 380 c 0
219 398 186 406 155 403 c 0
110 397 69 370 43 333 c 0
18 295 7 250 7 205 c 0
6 159 18 113 43 76 c 0
69 38 109 10 155 6 c 0
186 2 220 10 246 28 c 0
273 46 293 74 302 105 c 0
307 105 l 0
297 72 276 44 249 25 c 0
221 7 187 0 154 3 c 0
108 8 66 36 40 74 c 0
14 112 2 158 3 205 c 0
3 250 14 297 41 334 c 0
67 372 108 400 154 406 c 0
186 409 221 401 248 383 c 0
276 365 297 336 307 305 c 0
Z
Spiro
307 305 v
302 305 v
155 403 c
7 205 c
155 6 c
302 105 v
307 105 v
154 3 c
3 205 c
154 406 c
0 0 z
EndSpiro
EndSplineSet
        Fore
        SplineSet
306 303 m 0
299 303 l 0
290 333 270 360 243 378 c 0
217 395 184 403 153 400 c 0
108 394 68 367 42 330 c 0
17 293 6 247 6 203 c 0
5 157 16 112 42 74 c 0
67 37 108 9 153 5 c 0
184 1 217 9 243 27 c 0
270 45 290 72 299 103 c 0
306 103 l 0
296 70 275 41 247 23 c 0
220 4 185 -3 152 0 c 0
106 5 64 33 37 71 c 0
11 109 0 156 0 203 c 0
0 249 11 295 38 333 c 0
64 371 106 399 152 405 c 0
185 408 219 400 247 382 c 0
275 363 296 335 306 303 c 0
Z
Spiro
306 303 v
299 303 v
153 400 c
6 203 c
153 5 c
299 103 v
306 103 v
152 0 c
0 203 c
152 405 c
0 0 z
EndSpiro
EndSplineSet
        EndChar
StartChar: d
Encoding: 100 100 0
Width: 349
InSpiro: 1
        Flags: H
        LayerCount: 2
        Back
        SplineSet
307 3 m 0
302 3 l 0
302 607 l 0
307 607 l 0
307 3 l 0
Z
307 303 m 0
302 303 l 0
293 334 273 361 246 380 c 0
220 398 187 406 155 403 c 0
110 398 69 370 43 333 c 0
18 295 7 250 7 205 c 0
6 159 17 113 43 76 c 0
69 38 109 10 155 6 c 0
187 2 220 10 247 29 c 0
273 47 293 75 302 107 c 0
307 107 l 0
298 74 277 45 249 26 c 0
222 7 187 0 154 3 c 0
108 8 66 36 40 74 c 0
14 112 2 158 3 205 c 0
3 250 14 297 40 335 c 0
67 372 108 400 154 406 c 0
187 409 221 401 249 382 c 0
277 364 298 335 307 303 c 0
Z
Spiro
307 3 v
302 3 v
302 607 v
307 607 v
307 303 v
302 303 v
155 403 c
7 205 c
155 6 c
302 107 v
307 107 v
154 3 c
3 205 c
154 406 c
0 0 z
EndSpiro
EndSplineSet
        Fore
        SplineSet
306 0 m 0
299 0 l 0
299 606 l 0
306 606 l 0
306 0 l 0
Z
306 300 m 0
299 300 l 0
290 331 271 358 244 377 c 0
218 395 184 403 153 400 c 0
108 395 67 367 42 330 c 0
17 293 6 247 6 203 c 0
5 157 16 112 42 74 c 0
67 37 108 9 153 5 c 0
185 1 218 9 244 28 c 0
271 46 290 74 299 106 c 0
306 106 l 0
297 73 276 43 248 24 c 0
220 4 185 -3 152 0 c 0
105 5 64 33 37 71 c 0
11 109 0 156 0 203 c 0
0 249 11 295 38 333 c 0
64 371 106 399 152 405 c 0
185 408 220 400 248 381 c 0
276 362 297 332 306 300 c 0
Z
Spiro
306 0 v
299 0 v
299 606 v
306 606 v
306 300 v
299 300 v
153 400 c
6 203 c
153 5 c
299 106 v
306 106 v
152 0 c
0 203 c
152 405 c
0 0 z
EndSpiro
EndSplineSet
        EndChar
StartChar: e
Encoding: 101 101 0
Width: 349
InSpiro: 1
        Flags: H
        LayerCount: 2
        Back
        SplineSet
4 203 m 0
4 207 l 0
302 207 l 0
312 238 313 272 303 304 c 0
292 334 272 361 246 379 c 0
219 397 186 406 155 403 c 0
132 400 110 392 91 380 c 0
72 368 56 352 43 333 c 0
18 296 6 250 7 205 c 0
7 159 18 113 43 76 c 0
69 38 110 11 155 6 c 0
186 2 220 10 246 28 c 0
273 46 293 74 302 105 c 0
307 105 l 0
297 72 277 44 249 25 c 0
221 7 187 0 154 3 c 0
108 8 67 36 41 74 c 0
15 111 3 158 3 204 c 0
2 250 13 297 39 335 c 0
53 354 69 370 89 383 c 0
108 395 131 403 154 406 c 0
186 409 220 400 247 381 c 0
274 363 295 335 306 305 c 0
317 272 317 235 307 203 c 0
307 203 l 0
4 203 l 0
Z
Spiro
4 203 v
4 207 v
302 207 v
303 304 c
155 403 c
7 205 c
155 6 c
302 105 v
307 105 v
154 3 c
3 204 c
154 406 c
306 305 c
307 203 v
307 203 v
0 0 z
EndSpiro
EndSplineSet
        Fore
        SplineSet
2 200 m 0
2 206 l 0
299 206 l 0
309 236 310 271 300 302 c 0
290 332 270 359 243 376 c 0
217 394 184 403 153 400 c 0
130 397 108 389 90 377 c 0
71 365 54 349 42 330 c 0
16 293 5 247 6 203 c 0
6 157 17 112 42 75 c 0
67 37 108 10 153 5 c 0
184 1 217 9 243 27 c 0
270 44 290 72 299 103 c 0
306 103 l 0
296 70 275 41 248 23 c 0
220 4 185 -3 152 0 c 0
106 5 64 33 38 71 c 0
12 109 0 155 0 202 c 0
0 248 10 295 37 334 c 0
50 353 67 369 86 382 c 0
106 394 128 402 152 405 c 0
184 408 218 399 245 380 c 0
273 361 294 334 305 303 c 0
316 269 316 233 306 200 c 0
306 200 l 0
2 200 l 0
Z
Spiro
2 200 v
2 206 v
299 206 v
300 302 c
153 400 c
6 203 c
153 5 c
299 103 v
306 103 v
152 0 c
0 202 c
152 405 c
305 303 c
306 200 v
306 200 v
0 0 z
EndSpiro
EndSplineSet
        EndChar
StartChar: f
Encoding: 102 102 0
Width: 199
InSpiro: 1
        Flags: H
        LayerCount: 2
        Back
        SplineSet
157 607 m 0
157 603 l 0
133 604 109 599 88 588 c 0
67 578 49 561 36 541 c 0
23 521 15 499 11 475 c 0
7 452 6 428 7 405 c 0
7 3 l 0
3 3 l 0
3 405 l 0
3 429 3 453 7 477 c 0
11 501 19 524 33 544 c 0
46 565 64 582 86 592 c 0
108 603 132 608 157 607 c 0
Z
3 403 m 0
3 407 l 0
157 407 l 0
157 403 l 0
3 403 l 0
Z
Spiro
157 607 v
157 603 v
7 405 [
7 3 v
3 3 v
3 405 ]
3 403 v
3 407 v
157 407 v
157 403 v
0 0 z
EndSpiro
EndSplineSet
        Fore
        SplineSet
156 606 m 0
156 600 l 0
132 601 108 596 87 586 c 0
66 575 48 559 35 539 c 0
22 519 14 496 10 473 c 0
6 450 5 426 6 403 c 0
6 0 l 0
0 0 l 0
0 403 l 0
0 427 0 452 4 476 c 0
8 500 17 523 30 544 c 0
44 564 62 581 84 592 c 0
106 603 131 608 156 606 c 0
Z
0 400 m 0
0 406 l 0
156 406 l 0
156 400 l 0
0 400 l 0
Z
Spiro
156 606 v
156 600 v
6 403 [
6 0 v
0 0 v
0 403 ]
0 400 v
0 406 v
156 406 v
156 400 v
0 0 z
EndSpiro
EndSplineSet
        EndChar
StartChar: g
Encoding: 103 103 0
Width: 349
InSpiro: 1
        Flags: H
        LayerCount: 2
        Back
        SplineSet
302 407 m 0
307 407 l 0
307 5 l 0
307 -56 306 -119 284 -177 c 0
273 -205 257 -232 235 -254 c 0
213 -275 185 -291 155 -296 c 0
121 -301 86 -293 58 -274 c 0
30 -255 10 -225 3 -193 c 0
7 -193 l 0
13 -224 33 -253 60 -272 c 0
87 -290 121 -298 154 -293 c 0
183 -288 211 -272 233 -251 c 0
254 -230 270 -203 280 -175 c 0
301 -118 301 -56 302 4 c 0
302 407 l 0
Z
307 303 m 0
302 303 l 0
293 334 273 361 246 380 c 0
220 398 187 406 155 403 c 0
110 398 69 370 43 333 c 0
18 295 7 250 7 205 c 0
6 159 17 113 43 76 c 0
69 38 109 10 155 6 c 0
187 2 220 10 247 29 c 0
273 47 293 75 302 107 c 0
307 107 l 0
298 74 277 45 249 26 c 0
222 7 187 0 154 3 c 0
108 8 66 36 40 74 c 0
14 112 2 158 3 205 c 0
3 250 14 297 40 335 c 0
67 372 108 400 154 406 c 0
187 409 221 401 249 382 c 0
277 364 298 335 307 303 c 0
Z
Spiro
302 407 v
307 407 v
307 5 ]
155 -296 c
3 -193 v
7 -193 v
154 -293 c
302 4 [
307 303 v
302 303 v
155 403 c
7 205 c
155 6 c
302 107 v
307 107 v
154 3 c
3 205 c
154 406 c
0 0 z
EndSpiro
EndSplineSet
        Fore
        SplineSet
299 406 m 0
306 406 l 0
306 3 l 0
306 -58 305 -122 283 -179 c 0
272 -208 256 -235 234 -257 c 0
211 -278 183 -294 153 -299 c 0
119 -304 83 -296 55 -277 c 0
27 -257 7 -227 0 -194 c 0
6 -194 l 0
12 -225 32 -254 58 -273 c 0
85 -291 119 -299 152 -294 c 0
181 -289 209 -273 230 -252 c 0
252 -231 267 -204 278 -176 c 0
298 -119 298 -58 299 2 c 0
299 406 l 0
Z
306 300 m 0
299 300 l 0
290 331 271 358 244 377 c 0
218 395 184 403 153 400 c 0
108 395 67 367 42 330 c 0
17 293 6 247 6 203 c 0
5 157 16 112 42 74 c 0
67 37 108 9 153 5 c 0
185 1 218 9 244 28 c 0
271 46 290 74 299 106 c 0
306 106 l 0
297 73 276 43 248 24 c 0
220 4 185 -3 152 0 c 0
105 5 64 33 37 71 c 0
11 109 0 156 0 203 c 0
0 249 11 295 38 333 c 0
64 371 106 399 152 405 c 0
185 408 220 400 248 381 c 0
276 362 297 332 306 300 c 0
Z
Spiro
299 406 v
306 406 v
306 3 ]
153 -299 c
0 -194 v
6 -194 v
152 -294 c
299 2 [
306 300 v
299 300 v
153 400 c
6 203 c
153 5 c
299 106 v
306 106 v
152 0 c
0 203 c
152 405 c
0 0 z
EndSpiro
EndSplineSet
        EndChar
StartChar: h
Encoding: 104 104 0
Width: 349
InSpiro: 1
        Flags: H
        LayerCount: 2
        Back
        SplineSet
7 3 m 0
3 3 l 0
3 607 l 0
7 607 l 0
7 3 l 0
Z
7 263 m 0
3 263 l 0
16 292 37 317 63 335 c 0
90 353 121 364 154 366 c 0
176 367 199 363 220 354 c 0
241 346 260 331 274 314 c 0
288 296 297 274 302 252 c 0
306 230 307 207 307 185 c 0
307 3 l 0
302 3 l 0
302 185 l 0
301 207 301 229 297 250 c 0
292 272 284 293 270 310 c 0
257 328 239 342 219 350 c 0
199 359 176 363 155 363 c 0
123 362 92 352 66 334 c 0
40 316 19 291 7 263 c 0
Z
Spiro
7 3 v
3 3 v
3 607 v
7 607 v
7 263 v
3 263 v
154 366 c
307 185 [
307 3 v
302 3 v
302 185 ]
155 363 c
0 0 z
EndSpiro
EndSplineSet
        Fore
        SplineSet
6 0 m 0
0 0 l 0
0 606 l 0
6 606 l 0
6 0 l 0
Z
6 260 m 0
0 260 l 0
12 289 34 315 61 334 c 0
87 352 119 363 152 365 c 0
174 366 197 362 218 353 c 0
240 345 258 330 272 312 c 0
287 294 296 273 300 251 c 0
305 228 306 205 306 183 c 0
306 0 l 0
299 0 l 0
299 183 l 0
298 204 298 226 294 248 c 0
289 269 281 290 267 307 c 0
254 325 236 339 216 347 c 0
196 356 174 360 153 360 c 0
121 359 90 349 64 331 c 0
39 313 18 288 6 260 c 0
Z
Spiro
6 0 v
0 0 v
0 606 v
6 606 v
6 260 v
0 260 v
152 365 c
306 183 [
306 0 v
299 0 v
299 183 ]
153 360 c
0 0 z
EndSpiro
EndSplineSet
        EndChar
StartChar: i
Encoding: 105 105 0
Width: 49
InSpiro: 1
        Flags: H
        LayerCount: 2
        Back
        SplineSet
3 407 m 0
7 407 l 0
7 3 l 0
3 3 l 0
3 407 l 0
Z
5 498 m 0
6 498 8 498 9 500 c 0
11 501 11 503 12 505 c 0
12 506 11 508 9 509 c 0
8 511 6 512 5 512 c 0
3 511 1 511 0 509 c 0
-1 508 -1 506 -2 505 c 0
-2 503 -1 501 0 500 c 0
1 498 3 497 5 498 c 0
Z
Spiro
3 407 v
7 407 v
7 3 v
3 3 v
5 498 c
12 505 c
5 512 c
-2 505 c
0 0 z
EndSpiro
EndSplineSet
        Fore
        SplineSet
0 406 m 0
6 406 l 0
6 0 l 0
0 0 l 0
0 406 l 0
Z
3 495 m 0
5 495 7 495 8 497 c 0
10 498 10 500 11 503 c 0
11 505 10 507 8 508 c 0
7 510 5 511 3 511 c 0
0 510 -1 510 -2 508 c 0
-4 507 -4 505 -5 503 c 0
-5 500 -4 498 -2 497 c 0
-1 495 0 494 3 495 c 0
Z
Spiro
0 406 v
6 406 v
6 0 v
0 0 v
3 495 c
11 503 c
3 511 c
-5 503 c
0 0 z
EndSpiro
EndSplineSet
        EndChar
StartChar: j
Encoding: 106 106 0
Width: 289
InSpiro: 1
        Flags: H
        LayerCount: 2
        Back
        SplineSet
242 407 m 0
247 407 l 0
247 5 l 0
247 -50 249 -106 240 -160 c 0
235 -188 227 -215 214 -239 c 0
200 -263 180 -284 155 -296 c 0
138 -303 119 -306 101 -305 c 0
83 -303 65 -297 50 -287 c 0
35 -276 22 -262 14 -246 c 0
6 -229 2 -211 3 -193 c 0
7 -193 l 0
6 -210 9 -228 17 -244 c 0
25 -260 37 -274 52 -284 c 0
67 -294 84 -300 102 -302 c 0
119 -303 137 -300 154 -293 c 0
178 -281 198 -260 211 -236 c 0
224 -213 232 -186 236 -159 c 0
244 -105 241 -50 242 4 c 0
242 407 l 0
Z
245 498 m 0
246 498 248 498 249 500 c 0
251 501 251 503 252 505 c 0
252 506 251 508 249 509 c 0
248 511 246 512 245 512 c 0
243 511 241 511 240 509 c 0
238 508 238 506 238 505 c 0
237 503 238 501 240 500 c 0
241 498 243 497 245 498 c 0
Z
Spiro
242 407 v
247 407 v
247 5 ]
155 -296 c
3 -193 v
7 -193 v
154 -293 c
242 4 [
245 498 c
252 505 c
245 512 c
238 505 c
0 0 z
EndSpiro
EndSplineSet
        Fore
        SplineSet
239 406 m 0
246 406 l 0
246 3 l 0
246 -52 248 -108 239 -163 c 0
234 -190 226 -217 213 -242 c 0
199 -266 179 -287 154 -299 c 0
137 -306 118 -310 99 -308 c 0
80 -306 62 -300 47 -290 c 0
31 -279 19 -264 11 -248 c 0
2 -231 -1 -212 0 -194 c 0
6 -194 l 0
4 -211 8 -229 16 -245 c 0
23 -261 35 -274 50 -284 c 0
64 -294 81 -301 99 -302 c 0
116 -304 134 -301 151 -294 c 0
175 -282 195 -262 208 -238 c 0
221 -214 229 -187 233 -160 c 0
241 -107 238 -52 239 2 c 0
239 406 l 0
Z
243 495 m 0
245 495 247 495 248 497 c 0
250 498 250 500 251 503 c 0
251 505 250 507 248 508 c 0
247 510 245 511 243 511 c 0
240 510 238 510 237 508 c 0
235 507 235 505 235 503 c 0
234 500 235 498 237 497 c 0
238 495 240 494 243 495 c 0
Z
Spiro
239 406 v
246 406 v
246 3 ]
154 -299 c
0 -194 v
6 -194 v
151 -294 c
239 2 [
243 495 c
251 503 c
243 511 c
235 503 c
0 0 z
EndSpiro
EndSplineSet
        EndChar
StartChar: k
Encoding: 107 107 0
Width: 289
InSpiro: 1
        Flags: H
        LayerCount: 2
        Back
        SplineSet
3 607 m 0
7 607 l 0
7 3 l 0
3 3 l 0
3 607 l 0
Z
247 367 m 0
247 363 l 0
8 185 l 0
247 7 l 0
247 3 l 0
3 183 l 0
3 187 l 0
247 367 l 0
Z
Spiro
3 607 v
7 607 v
7 3 v
3 3 v
247 367 v
247 363 v
8 185 v
247 7 v
247 3 v
3 183 v
3 187 v
0 0 z
EndSpiro
EndSplineSet
        Fore
        SplineSet
0 606 m 0
6 606 l 0
6 0 l 0
0 0 l 0
0 606 l 0
Z
246 366 m 0
246 360 l 0
8 183 l 0
246 6 l 0
246 0 l 0
0 180 l 0
0 186 l 0
246 366 l 0
Z
Spiro
0 606 v
6 606 v
6 0 v
0 0 v
246 366 v
246 360 v
8 183 v
246 6 v
246 0 v
0 180 v
0 186 v
0 0 z
EndSpiro
EndSplineSet
        EndChar
StartChar: l
Encoding: 108 108 0
Width: 199
InSpiro: 1
        Flags: H
        LayerCount: 2
        Back
        SplineSet
3 607 m 0
7 607 l 0
7 185 l 0
7 162 7 139 11 117 c 0
15 94 23 73 37 54 c 0
50 36 69 21 90 13 c 0
111 4 134 2 157 7 c 0
157 3 l 0
134 -1 110 0 88 8 c 0
66 17 47 32 34 51 c 0
20 70 11 92 7 115 c 0
3 138 2 161 3 185 c 0
3 607 l 0
Z
Spiro
3 607 v
7 607 v
7 185 ]
157 7 v
157 3 v
3 185 [
0 0 z
EndSpiro
EndSplineSet
        Fore
        SplineSet
0 606 m 0
6 606 l 0
6 183 l 0
6 160 6 137 10 115 c 0
14 92 23 71 36 53 c 0
49 34 68 20 89 11 c 0
110 3 133 1 156 6 c 0
156 0 l 0
133 -5 108 -3 86 5 c 0
64 13 45 29 31 48 c 0
17 67 9 89 4 112 c 0
0 135 0 159 0 183 c 0
0 606 l 0
Z
Spiro
0 606 v
6 606 v
6 183 ]
156 6 v
156 0 v
0 183 [
0 0 z
EndSpiro
EndSplineSet
        EndChar
StartChar: m
Encoding: 109 109 0
Width: 529
InSpiro: 1
        Flags: H
        LayerCount: 2
        Back
        SplineSet
3 407 m 0
7 407 l 0
7 3 l 0
3 3 l 0
3 407 l 0
Z
7 3 m 0
3 3 l 0
3 307 l 0
3 307 l 0
4 342 24 375 53 395 c 0
83 414 122 418 155 406 c 0
173 399 189 387 202 372 c 0
216 357 225 340 232 321 c 0
246 284 246 244 247 205 c 0
247 3 l 0
242 3 l 0
242 205 l 0
242 243 241 282 228 319 c 0
222 337 212 354 200 369 c 0
187 384 171 395 154 403 c 0
121 415 82 411 54 391 c 0
25 372 7 337 7 303 c 0
7 3 l 0
Z
247 3 m 0
242 3 l 0
242 255 l 0
242 276 242 298 247 319 c 0
251 341 261 361 275 377 c 0
290 393 309 405 330 410 c 0
352 415 374 413 395 406 c 0
413 398 429 387 442 372 c 0
456 357 465 340 472 321 c 0
486 284 486 244 487 205 c 0
487 3 l 0
482 3 l 0
482 205 l 0
482 243 481 282 468 319 c 0
462 337 453 354 440 369 c 0
427 384 412 396 394 403 c 0
374 410 352 412 331 406 c 0
311 401 292 390 279 374 c 0
265 358 256 338 251 317 c 0
247 297 246 276 247 255 c 0
247 3 l 0
Z
Spiro
3 407 v
7 407 v
7 3 v
3 3 v
7 3 v
3 3 v
3 307 v
3 307 v
155 406 c
247 205 [
247 3 v
242 3 v
242 205 ]
154 403 c
7 303 v
247 3 v
242 3 v
242 255 ]
395 406 c
487 205 [
487 3 v
482 3 v
482 205 ]
394 403 c
247 255 [
0 0 z
EndSpiro
EndSplineSet
        Fore
        SplineSet
0 406 m 0
6 406 l 0
6 0 l 0
0 0 l 0
0 406 l 0
Z
6 0 m 0
0 0 l 0
0 306 l 0
0 306 l 0
2 341 21 375 51 394 c 0
81 413 120 417 154 405 c 0
172 397 188 385 201 371 c 0
215 356 224 338 231 320 c 0
245 282 245 242 246 203 c 0
246 0 l 0
239 0 l 0
239 203 l 0
239 241 238 280 225 316 c 0
219 335 209 352 197 366 c 0
184 381 168 393 151 400 c 0
118 412 80 408 52 388 c 0
24 369 6 335 6 301 c 0
6 0 l 0
Z
246 0 m 0
239 0 l 0
239 253 l 0
239 274 239 297 244 318 c 0
249 340 258 360 273 376 c 0
288 393 307 405 329 410 c 0
350 414 373 413 394 405 c 0
412 397 428 385 441 370 c 0
455 356 464 338 471 320 c 0
485 282 485 242 486 203 c 0
486 0 l 0
479 0 l 0
479 203 l 0
479 241 478 280 465 317 c 0
459 335 450 352 437 366 c 0
424 381 408 393 391 400 c 0
371 407 349 408 329 403 c 0
309 398 291 386 277 370 c 0
263 355 255 335 250 315 c 0
246 294 245 273 246 253 c 0
246 0 l 0
Z
Spiro
0 406 v
6 406 v
6 0 v
0 0 v
6 0 v
0 0 v
0 306 v
0 306 v
154 405 c
246 203 [
246 0 v
239 0 v
239 203 ]
151 400 c
6 301 v
246 0 v
239 0 v
239 253 ]
394 405 c
486 203 [
486 0 v
479 0 v
479 203 ]
391 400 c
246 253 [
0 0 z
EndSpiro
EndSplineSet
        EndChar
StartChar: n
Encoding: 110 110 0
Width: 289
InSpiro: 1
        Flags: H
        LayerCount: 2
        Back
        SplineSet
3 407 m 0
7 407 l 0
7 3 l 0
3 3 l 0
3 407 l 0
Z
7 3 m 0
3 3 l 0
3 307 l 0
3 307 l 0
4 342 24 375 53 395 c 0
83 414 122 418 155 406 c 0
173 399 189 387 202 372 c 0
216 357 225 340 232 321 c 0
246 284 246 244 247 205 c 0
247 3 l 0
242 3 l 0
242 205 l 0
242 243 241 282 228 319 c 0
222 337 212 354 200 369 c 0
187 384 171 395 154 403 c 0
121 415 82 411 54 391 c 0
25 372 7 337 7 303 c 0
7 3 l 0
Z
Spiro
3 407 v
7 407 v
7 3 v
3 3 v
7 3 v
3 3 v
3 307 v
3 307 v
155 406 c
247 205 [
247 3 v
242 3 v
242 205 ]
154 403 c
7 303 v
0 0 z
EndSpiro
EndSplineSet
        Fore
        SplineSet
0 406 m 0
6 406 l 0
6 0 l 0
0 0 l 0
0 406 l 0
Z
6 0 m 0
0 0 l 0
0 306 l 0
0 306 l 0
2 341 21 375 51 394 c 0
81 413 120 417 154 405 c 0
172 397 188 385 201 371 c 0
215 356 224 338 231 320 c 0
245 282 245 242 246 203 c 0
246 0 l 0
239 0 l 0
239 203 l 0
239 241 238 280 225 316 c 0
219 335 209 352 197 366 c 0
184 381 168 393 151 400 c 0
118 412 80 408 52 388 c 0
24 369 6 335 6 301 c 0
6 0 l 0
Z
Spiro
0 406 v
6 406 v
6 0 v
0 0 v
6 0 v
0 0 v
0 306 v
0 306 v
154 405 c
246 203 [
246 0 v
239 0 v
239 203 ]
151 400 c
6 301 v
0 0 z
EndSpiro
EndSplineSet
        EndChar
StartChar: o
Encoding: 111 111 0
Width: 349
InSpiro: 1
        Flags: H
        LayerCount: 2
        Back
        SplineSet
154 363 m 0
132 362 111 357 92 346 c 0
73 336 57 322 44 305 c 0
18 271 7 227 7 185 c 0
6 141 18 98 44 63 c 0
57 46 74 32 93 21 c 0
112 11 133 5 155 6 c 0
176 6 197 11 216 22 c 0
235 32 251 46 264 63 c 0
290 97 301 141 302 184 c 0
302 227 290 270 264 305 c 0
251 322 234 336 215 347 c 0
196 357 175 363 154 363 c 0
Z
307 185 m 0
307 140 294 96 267 61 c 0
254 43 237 29 217 18 c 0
198 8 176 2 154 3 c 0
132 3 110 9 91 19 c 0
72 29 55 44 42 61 c 0
15 96 3 140 3 184 c 0
2 227 15 272 42 307 c 0
55 324 72 339 91 349 c 0
111 360 133 366 155 366 c 0
176 365 198 360 218 349 c 0
237 339 254 325 267 307 c 0
294 273 306 228 307 185 c 0
Z
Spiro
154 363 c
7 185 c
155 6 c
302 184 c
307 185 c
154 3 c
3 184 c
155 366 c
0 0 z
EndSpiro
EndSplineSet
        Fore
        SplineSet
152 360 m 0
130 359 109 354 90 344 c 0
72 333 56 319 43 302 c 0
17 268 6 225 6 183 c 0
5 140 17 96 43 62 c 0
56 45 72 30 91 20 c 0
110 10 131 4 153 5 c 0
174 5 195 10 214 20 c 0
232 31 248 45 261 62 c 0
287 96 298 139 299 182 c 0
299 224 287 268 261 302 c 0
248 319 232 334 213 344 c 0
194 354 173 360 152 360 c 0
Z
306 183 m 0
306 138 293 93 266 58 c 0
252 40 235 26 215 15 c 0
196 5 174 0 152 0 c 0
130 0 108 6 88 16 c 0
69 26 52 41 39 58 c 0
12 93 0 138 0 182 c 0
0 226 12 271 39 306 c 0
52 323 69 338 89 348 c 0
108 359 130 365 153 365 c 0
175 364 196 359 216 348 c 0
235 338 252 323 266 306 c 0
293 271 305 227 306 183 c 0
Z
Spiro
152 360 c
6 183 c
153 5 c
299 182 c
306 183 c
152 0 c
0 182 c
153 365 c
0 0 z
EndSpiro
EndSplineSet
        EndChar
StartChar: p
Encoding: 112 112 0
Width: 349
InSpiro: 1
        Flags: H
        LayerCount: 2
        Back
        SplineSet
3 407 m 0
7 407 l 0
7 -297 l 0
3 -297 l 0
3 407 l 0
Z
7 303 m 0
3 303 l 0
11 335 32 363 60 382 c 0
87 401 121 409 155 406 c 0
200 400 242 373 268 335 c 0
295 297 306 250 307 205 c 0
307 158 295 111 269 73 c 0
242 36 200 7 155 3 c 0
121 0 87 8 59 26 c 0
32 45 11 74 3 107 c 0
7 107 l 0
15 75 35 47 61 29 c 0
88 10 121 2 154 6 c 0
199 10 239 38 265 76 c 0
291 113 302 159 302 205 c 0
301 250 290 295 265 333 c 0
239 370 198 398 154 403 c 0
121 406 88 398 62 380 c 0
35 361 15 334 7 303 c 0
Z
Spiro
3 407 v
7 407 v
7 -297 v
3 -297 v
7 303 v
3 303 v
155 406 c
307 205 c
155 3 c
3 107 v
7 107 v
154 6 c
302 205 c
154 403 c
0 0 z
EndSpiro
EndSplineSet
        Fore
        SplineSet
0 406 m 0
6 406 l 0
6 -300 l 0
0 -300 l 0
0 406 l 0
Z
6 300 m 0
0 300 l 0
8 332 29 361 57 380 c 0
84 399 119 408 153 405 c 0
198 400 240 372 267 334 c 0
293 296 305 249 306 203 c 0
306 156 294 109 267 71 c 0
241 33 199 4 153 0 c 0
119 -3 84 5 56 24 c 0
28 43 8 73 0 106 c 0
6 106 l 0
14 74 33 46 60 28 c 0
86 9 119 1 152 5 c 0
196 9 237 37 262 74 c 0
288 112 299 157 299 203 c 0
298 247 287 293 262 330 c 0
237 367 196 395 152 400 c 0
120 403 86 395 60 377 c 0
33 358 14 331 6 300 c 0
Z
Spiro
0 406 v
6 406 v
6 -300 v
0 -300 v
6 300 v
0 300 v
153 405 c
306 203 c
153 0 c
0 106 v
6 106 v
152 5 c
299 203 c
152 400 c
0 0 z
EndSpiro
EndSplineSet
        EndChar
StartChar: q
Encoding: 113 113 0
Width: 349
InSpiro: 1
        Flags: H
        LayerCount: 2
        Back
        SplineSet
302 367 m 0
307 367 l 0
307 -297 l 0
302 -297 l 0
302 367 l 0
Z
307 263 m 0
302 263 l 0
292 293 272 320 246 338 c 0
219 356 186 365 155 363 c 0
112 359 73 336 46 303 c 0
20 270 7 227 7 185 c 0
6 142 19 99 46 65 c 0
72 32 112 9 155 6 c 0
187 3 219 12 246 30 c 0
272 48 292 76 302 107 c 0
307 107 l 0
297 75 276 46 248 27 c 0
221 9 187 0 154 3 c 0
111 6 70 29 43 63 c 0
16 97 3 140 3 184 c 0
2 227 16 270 43 304 c 0
70 338 110 362 154 366 c 0
187 368 221 360 248 341 c 0
276 322 297 294 307 263 c 0
Z
Spiro
302 367 v
307 367 v
307 -297 v
302 -297 v
307 263 v
302 263 v
155 363 c
7 185 c
155 6 c
302 107 v
307 107 v
154 3 c
3 184 c
154 366 c
0 0 z
EndSpiro
EndSplineSet
        Fore
        SplineSet
299 366 m 0
306 366 l 0
306 -300 l 0
299 -300 l 0
299 366 l 0
Z
306 260 m 0
299 260 l 0
289 290 270 317 243 335 c 0
217 353 184 362 153 360 c 0
110 356 71 333 45 300 c 0
19 267 6 225 6 183 c 0
5 140 18 97 45 64 c 0
71 31 110 8 153 5 c 0
184 2 217 11 243 29 c 0
270 47 290 75 299 106 c 0
306 106 l 0
296 73 275 44 247 25 c 0
220 6 185 -2 152 0 c 0
108 3 68 27 40 60 c 0
13 94 0 138 0 182 c 0
0 225 13 269 40 303 c 0
67 337 108 361 152 365 c 0
185 367 219 358 247 339 c 0
275 320 296 292 306 260 c 0
Z
Spiro
299 366 v
306 366 v
306 -300 v
299 -300 v
306 260 v
299 260 v
153 360 c
6 183 c
153 5 c
299 106 v
306 106 v
152 0 c
0 182 c
152 365 c
0 0 z
EndSpiro
EndSplineSet
        EndChar
StartChar: r
Encoding: 114 114 0
Width: 289
InSpiro: 1
        Flags: H
        LayerCount: 2
        Back
        SplineSet
7 3 m 0
3 3 l 0
3 407 l 0
7 407 l 0
7 3 l 0
Z
7 353 m 0
3 353 l 0
19 376 43 395 70 404 c 0
97 414 127 414 155 406 c 0
178 398 199 385 215 367 c 0
231 349 242 326 247 303 c 0
242 303 l 0
237 325 227 347 211 365 c 0
196 382 176 395 154 403 c 0
127 411 98 411 72 402 c 0
45 393 22 375 7 353 c 0
Z
Spiro
7 3 v
3 3 v
3 407 v
7 407 v
7 353 v
3 353 v
155 406 c
247 303 v
242 303 v
154 403 c
0 0 z
EndSpiro
EndSplineSet
        Fore
        SplineSet
6 0 m 0
0 0 l 0
0 406 l 0
6 406 l 0
6 0 l 0
Z
6 350 m 0
0 350 l 0
15 374 39 393 67 403 c 0
94 412 125 413 153 405 c 0
176 397 197 383 214 365 c 0
230 347 241 324 246 300 c 0
239 300 l 0
234 322 224 344 209 362 c 0
194 379 174 392 152 400 c 0
125 408 96 408 70 399 c 0
44 390 21 372 6 350 c 0
Z
Spiro
6 0 v
0 0 v
0 406 v
6 406 v
6 350 v
0 350 v
153 405 c
246 300 v
239 300 v
152 400 c
0 0 z
EndSpiro
EndSplineSet
        EndChar
StartChar: s
Encoding: 115 115 0
Width: 349
InSpiro: 1
        Flags: H
        LayerCount: 2
        Back
        SplineSet
307 265 m 0
302 265 l 0
281 297 251 323 216 341 c 0
182 358 143 365 105 363 c 0
80 361 55 354 35 339 c 0
26 331 17 322 12 311 c 0
7 299 5 287 7 275 c 0
9 259 17 246 28 235 c 0
39 225 53 217 67 211 c 0
95 199 125 193 155 186 c 0
185 178 216 172 244 159 c 0
259 153 273 145 284 135 c 0
295 124 304 110 307 95 c 0
309 82 306 68 301 57 c 0
296 45 287 35 277 27 c 0
256 11 230 4 205 3 c 0
165 0 125 8 89 26 c 0
54 44 24 71 3 105 c 0
7 105 l 0
27 72 57 45 91 28 c 0
126 10 165 3 204 6 c 0
228 7 253 14 273 29 c 0
282 37 291 46 296 57 c 0
301 69 303 81 302 94 c 0
299 109 291 122 280 133 c 0
269 143 255 151 241 157 c 0
213 169 183 175 154 183 c 0
123 190 93 196 64 209 c 0
50 215 36 223 25 233 c 0
14 244 5 258 3 274 c 0
0 286 3 299 8 311 c 0
13 323 22 333 32 341 c 0
52 357 78 363 104 366 c 0
143 369 183 361 219 343 c 0
255 325 285 298 307 265 c 0
Z
Spiro
307 265 v
302 265 v
105 363 c
7 275 c
155 186 a
255 161 h
307 95 c
205 3 c
3 105 v
7 105 v
204 6 c
302 94 c
154 183 a
54 208 h
3 274 c
104 366 c
0 0 z
EndSpiro
EndSplineSet
        Fore
        SplineSet
306 263 m 0
299 263 l 0
278 295 248 321 214 338 c 0
180 355 141 362 103 360 c 0
78 358 53 351 34 336 c 0
24 329 16 319 11 308 c 0
6 297 4 285 6 273 c 0
8 258 16 244 27 234 c 0
38 223 51 216 65 210 c 0
93 198 123 192 153 185 c 0
183 177 214 170 243 158 c 0
258 152 271 144 283 133 c 0
294 122 303 108 306 93 c 0
308 80 305 66 300 54 c 0
295 42 286 32 276 24 c 0
255 8 229 1 203 0 c 0
163 -2 122 5 87 23 c 0
51 41 21 69 0 103 c 0
6 103 l 0
26 70 56 44 90 26 c 0
124 9 163 2 202 5 c 0
226 6 251 13 270 28 c 0
280 35 288 45 293 56 c 0
298 67 300 79 299 92 c 0
296 106 288 120 277 130 c 0
266 141 253 148 239 154 c 0
211 166 181 172 152 180 c 0
121 187 90 194 61 206 c 0
47 212 33 220 22 231 c 0
11 242 2 256 0 272 c 0
-2 284 0 298 5 309 c 0
10 321 19 331 29 339 c 0
49 355 76 362 102 365 c 0
141 368 182 360 218 342 c 0
253 324 284 296 306 263 c 0
Z
Spiro
306 263 v
299 263 v
103 360 c
6 273 c
153 185 a
253 160 h
306 93 c
203 0 c
0 103 v
6 103 v
202 5 c
299 92 c
152 180 a
52 205 h
0 272 c
102 365 c
0 0 z
EndSpiro
EndSplineSet
        EndChar
StartChar: t
Encoding: 116 116 0
Width: 199
InSpiro: 1
        Flags: H
        LayerCount: 2
        Back
        SplineSet
3 607 m 0
7 607 l 0
7 205 l 0
7 181 7 157 11 134 c 0
15 110 23 88 36 68 c 0
49 48 67 31 88 21 c 0
109 10 133 5 157 7 c 0
157 3 l 0
132 1 108 6 86 17 c 0
64 27 46 44 33 65 c 0
19 85 11 108 7 132 c 0
3 156 2 180 3 205 c 0
3 607 l 0
Z
3 403 m 0
3 407 l 0
157 407 l 0
157 403 l 0
3 403 l 0
Z
Spiro
3 607 v
7 607 v
7 205 ]
157 7 v
157 3 v
3 205 [
3 403 v
3 407 v
157 407 v
157 403 v
0 0 z
EndSpiro
EndSplineSet
        Fore
        SplineSet
0 606 m 0
6 606 l 0
6 203 l 0
5 179 6 155 10 132 c 0
14 109 22 86 35 66 c 0
48 46 66 30 87 19 c 0
108 9 132 4 156 6 c 0
156 0 l 0
131 -2 106 2 84 13 c 0
62 24 44 41 30 61 c 0
17 82 8 105 4 129 c 0
0 153 0 178 0 203 c 0
0 606 l 0
Z
0 400 m 0
0 406 l 0
156 406 l 0
156 400 l 0
0 400 l 0
Z
Spiro
0 606 v
6 606 v
6 203 ]
156 6 v
156 0 v
0 203 [
0 400 v
0 406 v
156 406 v
156 400 v
0 0 z
EndSpiro
EndSplineSet
        EndChar
StartChar: u
Encoding: 117 117 0
Width: 289
InSpiro: 1
        Flags: H
        LayerCount: 2
        Back
        SplineSet
247 3 m 0
242 3 l 0
242 407 l 0
247 407 l 0
247 3 l 0
Z
242 107 m 0
247 107 l 0
246 81 236 57 219 38 c 0
202 19 179 7 155 3 c 0
130 0 105 3 84 14 c 0
62 25 44 43 31 63 c 0
18 84 10 108 7 132 c 0
3 156 2 180 3 205 c 0
3 407 l 0
7 407 l 0
7 205 l 0
7 181 7 157 10 133 c 0
14 110 21 87 34 66 c 0
46 46 63 29 84 17 c 0
105 6 130 2 154 6 c 0
177 9 200 22 216 40 c 0
232 58 241 82 242 107 c 0
Z
Spiro
247 3 v
242 3 v
242 407 v
247 407 v
242 107 v
247 107 v
155 3 c
3 205 [
3 407 v
7 407 v
7 205 ]
154 6 c
0 0 z
EndSpiro
EndSplineSet
        Fore
        SplineSet
246 0 m 0
239 0 l 0
239 406 l 0
246 406 l 0
246 0 l 0
Z
239 106 m 0
246 106 l 0
245 80 235 55 218 36 c 0
201 17 178 4 153 0 c 0
128 -3 103 0 81 11 c 0
59 22 41 40 28 61 c 0
15 81 7 105 4 129 c 0
0 153 0 178 0 203 c 0
0 406 l 0
6 406 l 0
6 203 l 0
6 179 6 155 9 132 c 0
13 108 20 85 32 65 c 0
45 45 62 27 83 16 c 0
104 5 128 1 152 5 c 0
175 8 198 21 213 39 c 0
229 57 238 81 239 106 c 0
Z
Spiro
246 0 v
239 0 v
239 406 v
246 406 v
239 106 v
246 106 v
153 0 c
0 203 [
0 406 v
6 406 v
6 203 ]
152 5 c
0 0 z
EndSpiro
EndSplineSet
        EndChar
StartChar: v
Encoding: 118 118 0
Width: 349
InSpiro: 1
        Flags: H
        LayerCount: 2
        Back
        SplineSet
3 407 m 0
7 407 l 0
155 10 l 0
302 407 l 0
307 407 l 0
157 3 l 0
152 3 l 0
3 407 l 0
Z
Spiro
3 407 v
7 407 v
155 10 v
302 407 v
307 407 v
157 3 v
152 3 v
0 0 z
EndSpiro
EndSplineSet
        Fore
        SplineSet
0 406 m 0
6 406 l 0
153 11 l 0
299 406 l 0
306 406 l 0
156 0 l 0
149 0 l 0
0 406 l 0
Z
Spiro
0 406 v
6 406 v
153 11 v
299 406 v
306 406 v
156 0 v
149 0 v
0 0 z
EndSpiro
EndSplineSet
        EndChar
StartChar: w
Encoding: 119 119 0
Width: 529
InSpiro: 1
        Flags: H
        LayerCount: 2
        Back
        SplineSet
3 407 m 0
7 407 l 0
125 11 l 0
242 407 l 0
247 407 l 0
365 11 l 0
482 407 l 0
487 407 l 0
367 3 l 0
362 3 l 0
245 398 l 0
127 3 l 0
122 3 l 0
3 407 l 0
Z
Spiro
3 407 v
7 407 v
125 11 v
242 407 v
247 407 v
365 11 v
482 407 v
487 407 v
367 3 v
362 3 v
245 398 v
127 3 v
122 3 v
0 0 z
EndSpiro
EndSplineSet
        Fore
        SplineSet
0 406 m 0
6 406 l 0
123 13 l 0
239 406 l 0
246 406 l 0
363 13 l 0
479 406 l 0
486 406 l 0
366 0 l 0
359 0 l 0
243 392 l 0
126 0 l 0
119 0 l 0
0 406 l 0
Z
Spiro
0 406 v
6 406 v
123 13 v
239 406 v
246 406 v
363 13 v
479 406 v
486 406 v
366 0 v
359 0 v
243 392 v
126 0 v
119 0 v
0 0 z
EndSpiro
EndSplineSet
        EndChar
StartChar: x
Encoding: 120 120 0
Width: 349
InSpiro: 1
        Flags: H
        LayerCount: 2
        Back
        SplineSet
3 367 m 0
7 367 l 0
307 3 l 0
302 3 l 0
3 367 l 0
Z
302 367 m 0
307 367 l 0
7 3 l 0
3 3 l 0
302 367 l 0
Z
Spiro
3 367 v
7 367 v
307 3 v
302 3 v
302 367 v
307 367 v
7 3 v
3 3 v
0 0 z
EndSpiro
EndSplineSet
        Fore
        SplineSet
0 366 m 0
6 366 l 0
306 0 l 0
299 0 l 0
0 366 l 0
Z
299 366 m 0
306 366 l 0
6 0 l 0
0 0 l 0
299 366 l 0
Z
Spiro
0 366 v
6 366 v
306 0 v
299 0 v
299 366 v
306 366 v
6 0 v
0 0 v
0 0 z
EndSpiro
EndSplineSet
        EndChar
StartChar: y
Encoding: 121 121 0
Width: 349
InSpiro: 1
        Flags: H
        LayerCount: 2
        Back
        SplineSet
302 407 m 0
307 407 l 0
307 5 l 0
307 -56 306 -119 284 -177 c 0
273 -205 257 -232 235 -254 c 0
213 -275 185 -291 155 -296 c 0
121 -301 86 -293 58 -274 c 0
30 -255 10 -225 3 -193 c 0
7 -193 l 0
13 -224 33 -253 60 -272 c 0
87 -290 121 -298 154 -293 c 0
183 -288 211 -272 233 -251 c 0
254 -230 270 -203 280 -175 c 0
301 -118 301 -56 302 4 c 0
302 407 l 0
Z
3 407 m 0
7 407 l 0
7 205 l 0
6 181 7 158 11 135 c 0
15 112 23 89 36 70 c 0
49 50 67 34 87 23 c 0
108 12 131 6 155 7 c 0
178 7 201 12 221 23 c 0
242 35 259 51 272 70 c 0
285 90 293 112 297 135 c 0
301 158 302 181 302 205 c 0
302 407 l 0
307 407 l 0
307 205 l 0
307 181 306 157 302 133 c 0
298 110 289 87 276 67 c 0
263 47 245 31 223 19 c 0
202 8 178 2 155 3 c 0
131 3 107 8 86 19 c 0
64 31 46 47 33 67 c 0
20 87 11 110 7 133 c 0
3 157 2 181 3 205 c 0
3 407 l 0
Z
Spiro
302 407 v
307 407 v
307 5 ]
155 -296 c
3 -193 v
7 -193 v
154 -293 c
302 4 [
3 407 v
7 407 v
7 205 ]
155 7 c
302 205 [
302 407 v
307 407 v
307 205 ]
155 3 c
3 205 [
0 0 z
EndSpiro
EndSplineSet
        Fore
        SplineSet
299 406 m 0
306 406 l 0
306 3 l 0
306 -58 305 -122 283 -179 c 0
272 -208 256 -235 234 -257 c 0
211 -278 183 -294 153 -299 c 0
119 -304 83 -296 55 -277 c 0
27 -257 7 -227 0 -194 c 0
6 -194 l 0
12 -225 32 -254 58 -273 c 0
85 -291 119 -299 152 -294 c 0
181 -289 209 -273 230 -252 c 0
252 -231 267 -204 278 -176 c 0
298 -119 298 -58 299 2 c 0
299 406 l 0
Z
0 406 m 0
6 406 l 0
6 203 l 0
6 179 6 156 10 133 c 0
14 110 22 88 35 69 c 0
48 49 65 33 86 22 c 0
106 11 129 5 153 6 c 0
176 6 199 11 219 22 c 0
239 33 257 50 270 69 c 0
282 88 290 111 294 133 c 0
298 156 299 179 299 203 c 0
299 406 l 0
306 406 l 0
306 203 l 0
306 178 305 154 301 131 c 0
297 107 288 84 275 64 c 0
261 44 243 28 222 16 c 0
201 5 177 0 153 0 c 0
128 0 104 5 83 16 c 0
62 28 44 44 30 64 c 0
17 84 8 107 4 131 c 0
0 154 0 178 0 203 c 0
0 406 l 0
Z
Spiro
299 406 v
306 406 v
306 3 ]
153 -299 c
0 -194 v
6 -194 v
152 -294 c
299 2 [
0 406 v
6 406 v
6 203 ]
153 6 c
299 203 [
299 406 v
306 406 v
306 203 ]
153 0 c
0 203 [
0 0 z
EndSpiro
EndSplineSet
        EndChar
StartChar: z
Encoding: 122 122 0
Width: 349
InSpiro: 1
        Flags: H
        LayerCount: 2
        Back
        SplineSet
3 403 m 0
3 407 l 0
307 407 l 0
307 407 l 0
9 7 l 0
307 7 l 0
307 3 l 0
3 3 l 0
3 3 l 0
300 403 l 0
3 403 l 0
Z
Spiro
3 403 v
3 407 v
307 407 v
307 407 v
9 7 v
307 7 v
307 3 v
3 3 v
3 3 v
300 403 v
0 0 z
EndSpiro
EndSplineSet
        Fore
        SplineSet
0 400 m 0
0 406 l 0
306 406 l 0
306 406 l 0
9 6 l 0
306 6 l 0
306 0 l 0
0 0 l 0
0 0 l 0
296 400 l 0
0 400 l 0
Z
Spiro
0 400 v
0 406 v
306 406 v
306 406 v
9 6 v
306 6 v
306 0 v
0 0 v
0 0 v
296 400 v
0 0 z
EndSpiro
EndSplineSet
        EndChar
StartChar: £
Encoding: 163 163 0
Width: 349
InSpiro: 1
        Flags: H
        LayerCount: 2
        Back
        SplineSet
307 503 m 0
302 503 l 0
304 521 301 539 294 556 c 0
286 572 274 587 259 597 c 0
244 607 226 613 208 614 c 0
190 615 171 611 156 603 c 0
132 590 114 568 103 543 c 0
92 519 86 492 84 465 c 0
79 412 82 358 82 305 c 0
82 3 l 0
77 3 l 0
77 305 l 0
76 359 74 413 80 467 c 0
82 494 88 521 100 545 c 0
111 570 129 592 153 606 c 0
169 615 188 619 207 619 c 0
226 618 245 612 261 601 c 0
277 591 290 576 298 558 c 0
306 541 309 521 307 503 c 0
Z
3 3 m 0
3 7 l 0
307 7 l 0
307 3 l 0
3 3 l 0
Z
3 303 m 0
3 307 l 0
157 307 l 0
157 303 l 0
3 303 l 0
Z
Spiro
307 503 v
302 503 v
156 603 c
82 305 [
82 3 v
77 3 v
77 305 ]
153 606 c
3 3 v
3 7 v
307 7 v
307 3 v
3 303 v
3 307 v
157 307 v
157 303 v
0 0 z
EndSpiro
EndSplineSet
        Fore
        SplineSet
306 500 m 0
299 500 l 0
301 517 298 536 291 553 c 0
284 569 272 584 257 594 c 0
242 604 224 610 206 611 c 0
188 612 169 608 154 600 c 0
130 587 113 565 101 540 c 0
90 516 85 489 83 463 c 0
78 410 81 356 81 303 c 0
81 0 l 0
74 0 l 0
74 303 l 0
73 357 71 412 77 466 c 0
80 493 86 520 97 544 c 0
109 569 127 591 151 605 c 0
167 614 187 619 206 618 c 0
225 617 244 611 260 600 c 0
276 589 289 574 297 556 c 0
305 538 308 519 306 500 c 0
Z
0 0 m 0
0 6 l 0
306 6 l 0
306 0 l 0
0 0 l 0
Z
0 300 m 0
0 306 l 0
156 306 l 0
156 300 l 0
0 300 l 0
Z
Spiro
306 500 v
299 500 v
154 600 c
81 303 [
81 0 v
74 0 v
74 303 ]
151 605 c
0 0 v
0 6 v
306 6 v
306 0 v
0 300 v
0 306 v
156 306 v
156 300 v
0 0 z
EndSpiro
EndSplineSet
        EndChar
